<svg xmlns="http://www.w3.org/2000/svg" xmlns:xlink="http://www.w3.org/1999/xlink" xmlns:lucid="lucid" width="2172" height="676.4"><g transform="translate(901 -667.6015625)" lucid:page-tab-id="0_0"><path d="M-1000 500h2500v1000h-2500z" fill="#fff"/><path d="M-900 766a6 6 0 0 1 6-6h2158a6 6 0 0 1 6 6v571a6 6 0 0 1-6 6H-894a6 6 0 0 1-6-6z" stroke="#3a414a" stroke-width="2" fill="#fff"/><path d="M-900 673.6a6 6 0 0 1 6-6h302.15a6 6 0 0 1 6 6V742a6 6 0 0 1-6 6H-894a6 6 0 0 1-6-6z" fill="#3a414a"/><use xlink:href="#a" transform="matrix(1,0,0,1,-884,683.6015625) translate(0 39.05078125)"/><use xlink:href="#b" transform="matrix(1,0,0,1,-884,683.6015625) translate(184.86328125 39.05078125)"/><path d="M834 898a12 12 0 0 1 12-12h332a12 12 0 0 1 12 12v307a12 12 0 0 1-12 12H846a12 12 0 0 1-12-12z" fill="#fff0fb"/><path d="M834 926h356v38H834z" fill="#fff0fb"/><path d="M834 963h356v38H834z" fill="#e6d8e2"/><path d="M834 1000h356v38H834z" fill="#fff0fb"/><path d="M834 1037h356v38H834z" fill="#e6d8e2"/><path d="M834 1074h356v70H834z" fill="#fff0fb"/><path d="M834 1143h356v38H834z" fill="#e6d8e2"/><path d="M834 1180h356v25a12 12 0 0 1-12 12H846a12 12 0 0 1-12-12z" fill="#fff0fb"/><path d="M835 926h354-354zM834 898a12 12 0 0 1 12-12h332a12 12 0 0 1 12 12v307a12 12 0 0 1-12 12H846a12 12 0 0 1-12-12zM1012 927v289z" stroke="#ff80df" stroke-width="2" fill="none"/><use xlink:href="#c" transform="matrix(1,0,0,1,844,886) translate(143.20616319444446 28.08376736111111)"/><use xlink:href="#d" transform="matrix(1,0,0,1,839,928.5) translate(0 24.08376736111111)"/><use xlink:href="#e" transform="matrix(1,0,0,1,839,928.5) translate(36.12196180555556 24.08376736111111)"/><use xlink:href="#f" transform="matrix(1,0,0,1,1017,928.5) translate(0 24.08376736111111)"/><use xlink:href="#g" transform="matrix(1,0,0,1,839,965.5) translate(0 24.08376736111111)"/><use xlink:href="#f" transform="matrix(1,0,0,1,1017,965.5) translate(0 24.08376736111111)"/><use xlink:href="#h" transform="matrix(1,0,0,1,839,1002.5) translate(0 24.08376736111111)"/><use xlink:href="#f" transform="matrix(1,0,0,1,1017,1002.5) translate(0 24.08376736111111)"/><use xlink:href="#i" transform="matrix(1,0,0,1,839,1039.5) translate(0 24.08376736111111)"/><use xlink:href="#f" transform="matrix(1,0,0,1,1017,1039.5) translate(0 24.08376736111111)"/><use xlink:href="#j" transform="matrix(1,0,0,1,839,1076.5) translate(0 23.95095486111111)"/><use xlink:href="#k" transform="matrix(1,0,0,1,839,1076.5) translate(45.90928819444444 23.95095486111111)"/><use xlink:href="#l" transform="matrix(1,0,0,1,839,1076.5) translate(140.4296875 23.95095486111111)"/><use xlink:href="#m" transform="matrix(1,0,0,1,839,1076.5) translate(0 56.21657986111111)"/><use xlink:href="#n" transform="matrix(1,0,0,1,839,1076.5) translate(56.564670138888886 56.21657986111111)"/><use xlink:href="#o" transform="matrix(1,0,0,1,839,1076.5) translate(70.20399305555556 56.21657986111111)"/><use xlink:href="#p" transform="matrix(1,0,0,1,1017,1076.5) translate(0 40.083767361111114)"/><use xlink:href="#q" transform="matrix(1,0,0,1,839,1145.5) translate(0 24.08376736111111)"/><use xlink:href="#f" transform="matrix(1,0,0,1,1017,1145.5) translate(0 24.08376736111111)"/><use xlink:href="#r" transform="matrix(1,0,0,1,839,1182.5) translate(0 24.08376736111111)"/><use xlink:href="#s" transform="matrix(1,0,0,1,1017,1182.5) translate(0 24.08376736111111)"/><path d="M310 852a12 12 0 0 1 12-12h300a12 12 0 0 1 12 12v399a12 12 0 0 1-12 12H322a12 12 0 0 1-12-12z" fill="#edf5ff"/><path d="M310 880h324v38H310z" fill="#edf5ff"/><path d="M310 917h324v70H310z" fill="#d5dde6"/><path d="M310 986h324v135H310z" fill="#edf5ff"/><path d="M310 1120h324v38H310z" fill="#d5dde6"/><path d="M310 1157h324v70H310z" fill="#edf5ff"/><path d="M310 1226h324v25a12 12 0 0 1-12 12H322a12 12 0 0 1-12-12z" fill="#d5dde6"/><path d="M311 880h322-322zM310 852a12 12 0 0 1 12-12h300a12 12 0 0 1 12 12v399a12 12 0 0 1-12 12H322a12 12 0 0 1-12-12zM472 881v381z" stroke="#6db1ff" stroke-width="2" fill="none"/><use xlink:href="#t" transform="matrix(1,0,0,1,320,840) translate(80.98763020833334 28.08376736111111)"/><use xlink:href="#d" transform="matrix(1,0,0,1,315,882.5) translate(0 24.08376736111111)"/><use xlink:href="#e" transform="matrix(1,0,0,1,315,882.5) translate(36.12196180555556 24.08376736111111)"/><use xlink:href="#f" transform="matrix(1,0,0,1,477,882.5) translate(0 24.08376736111111)"/><use xlink:href="#u" transform="matrix(1,0,0,1,315,919.5) translate(0 23.95095486111111)"/><use xlink:href="#v" transform="matrix(1,0,0,1,315,919.5) translate(88.50911458333333 23.95095486111111)"/><use xlink:href="#w" transform="matrix(1,0,0,1,315,919.5) translate(0 56.21657986111111)"/><use xlink:href="#x" transform="matrix(1,0,0,1,315,919.5) translate(41.525607638888886 56.21657986111111)"/><use xlink:href="#f" transform="matrix(1,0,0,1,477,919.5) translate(0 40.083767361111114)"/><use xlink:href="#y" transform="matrix(1,0,0,1,315,988.5) translate(0 24.185329861111114)"/><use xlink:href="#z" transform="matrix(1,0,0,1,315,988.5) translate(0 56.450954861111114)"/><use xlink:href="#l" transform="matrix(1,0,0,1,315,988.5) translate(116.22178819444446 56.450954861111114)"/><use xlink:href="#A" transform="matrix(1,0,0,1,315,988.5) translate(0 88.71657986111111)"/><use xlink:href="#l" transform="matrix(1,0,0,1,315,988.5) translate(144.3359375 88.71657986111111)"/><use xlink:href="#B" transform="matrix(1,0,0,1,315,988.5) translate(0 120.98220486111111)"/><use xlink:href="#p" transform="matrix(1,0,0,1,477,988.5) translate(0 72.58376736111111)"/><use xlink:href="#C" transform="matrix(1,0,0,1,315,1122.5) translate(0 24.08376736111111)"/><use xlink:href="#D" transform="matrix(1,0,0,1,315,1122.5) translate(89.80034722222221 24.08376736111111)"/><use xlink:href="#E" transform="matrix(1,0,0,1,477,1122.5) translate(0 24.08376736111111)"/><use xlink:href="#F" transform="matrix(1,0,0,1,315,1159.5) translate(0 23.95095486111111)"/><use xlink:href="#G" transform="matrix(1,0,0,1,315,1159.5) translate(0 56.21657986111111)"/><use xlink:href="#H" transform="matrix(1,0,0,1,477,1159.5) translate(0 40.083767361111114)"/><use xlink:href="#I" transform="matrix(1,0,0,1,315,1228.5) translate(0 24.08376736111111)"/><use xlink:href="#f" transform="matrix(1,0,0,1,477,1228.5) translate(0 24.08376736111111)"/><path d="M-820 868a12 12 0 0 1 12-12h332a12 12 0 0 1 12 12v367a12 12 0 0 1-12 12h-332a12 12 0 0 1-12-12z" fill="#f4d9ff"/><path d="M-820 896h356v38h-356z" fill="#f4d9ff"/><path d="M-820 933h356v70h-356z" fill="#dcc3e6"/><path d="M-820 1002h356v135h-356z" fill="#f4d9ff"/><path d="M-820 1136h356v38h-356z" fill="#dcc3e6"/><path d="M-820 1173h356v38h-356z" fill="#f4d9ff"/><path d="M-820 1210h356v25a12 12 0 0 1-12 12h-332a12 12 0 0 1-12-12z" fill="#dcc3e6"/><path d="M-819 896h354-354zM-820 868a12 12 0 0 1 12-12h332a12 12 0 0 1 12 12v367a12 12 0 0 1-12 12h-332a12 12 0 0 1-12-12zM-642 897v349z" stroke="#e08fff" stroke-width="2" fill="none"/><use xlink:href="#J" transform="matrix(1,0,0,1,-810,856) translate(118.61306423611111 28.08376736111111)"/><use xlink:href="#d" transform="matrix(1,0,0,1,-815,898.5) translate(0 24.08376736111111)"/><use xlink:href="#e" transform="matrix(1,0,0,1,-815,898.5) translate(36.12196180555556 24.08376736111111)"/><use xlink:href="#f" transform="matrix(1,0,0,1,-637,898.5) translate(0 24.08376736111111)"/><use xlink:href="#K" transform="matrix(1,0,0,1,-815,935.5) translate(0 23.95095486111111)"/><use xlink:href="#L" transform="matrix(1,0,0,1,-815,935.5) translate(91.73177083333333 23.95095486111111)"/><use xlink:href="#M" transform="matrix(1,0,0,1,-815,935.5) translate(126.03081597222221 23.95095486111111)"/><use xlink:href="#x" transform="matrix(1,0,0,1,-815,935.5) translate(0 56.21657986111111)"/><use xlink:href="#f" transform="matrix(1,0,0,1,-637,935.5) translate(0 40.083767361111114)"/><use xlink:href="#N" transform="matrix(1,0,0,1,-815,1004.5) translate(0 24.185329861111114)"/><use xlink:href="#O" transform="matrix(1,0,0,1,-815,1004.5) translate(53.00564236111111 24.185329861111114)"/><use xlink:href="#n" transform="matrix(1,0,0,1,-815,1004.5) translate(0 56.450954861111114)"/><use xlink:href="#P" transform="matrix(1,0,0,1,-815,1004.5) translate(13.639322916666666 56.450954861111114)"/><use xlink:href="#l" transform="matrix(1,0,0,1,-815,1004.5) translate(83.02951388888889 56.450954861111114)"/><use xlink:href="#Q" transform="matrix(1,0,0,1,-815,1004.5) translate(0 88.71657986111111)"/><use xlink:href="#l" transform="matrix(1,0,0,1,-815,1004.5) translate(141.05902777777777 88.71657986111111)"/><use xlink:href="#R" transform="matrix(1,0,0,1,-815,1004.5) translate(0 120.98220486111111)"/><use xlink:href="#p" transform="matrix(1,0,0,1,-637,1004.5) translate(0 72.58376736111111)"/><use xlink:href="#S" transform="matrix(1,0,0,1,-815,1138.5) translate(0 24.08376736111111)"/><use xlink:href="#E" transform="matrix(1,0,0,1,-637,1138.5) translate(0 24.08376736111111)"/><use xlink:href="#T" transform="matrix(1,0,0,1,-815,1175.5) translate(0 24.08376736111111)"/><use xlink:href="#U" transform="matrix(1,0,0,1,-637,1175.5) translate(0 24.08376736111111)"/><use xlink:href="#V" transform="matrix(1,0,0,1,-815,1212.5) translate(0 24.08376736111111)"/><use xlink:href="#s" transform="matrix(1,0,0,1,-637,1212.5) translate(0 24.08376736111111)"/><path d="M-264 854.5a12 12 0 0 1 12-12H98a12 12 0 0 1 12 12v394a12 12 0 0 1-12 12h-350a12 12 0 0 1-12-12z" fill="#fff3d9"/><path d="M-264 882.5h374v38h-374z" fill="#fff3d9"/><path d="M-264 919.5h374v135h-374z" fill="#e6dbc3"/><path d="M-264 1053.5h374v102h-374z" fill="#fff3d9"/><path d="M-264 1154.5h374v38h-374z" fill="#e6dbc3"/><path d="M-264 1191.5h374v57a12 12 0 0 1-12 12h-350a12 12 0 0 1-12-12z" fill="#fff3d9"/><path d="M-263 882.5h372-372zM-264 854.5a12 12 0 0 1 12-12H98a12 12 0 0 1 12 12v394a12 12 0 0 1-12 12h-350a12 12 0 0 1-12-12zM-77 883.5v376z" stroke="#fcce14" stroke-width="2" fill="none"/><use xlink:href="#W" transform="matrix(1,0,0,1,-254,842.5) translate(125.0414496527778 28.08376736111111)"/><use xlink:href="#d" transform="matrix(1,0,0,1,-259,885) translate(0 24.08376736111111)"/><use xlink:href="#e" transform="matrix(1,0,0,1,-259,885) translate(36.12196180555556 24.08376736111111)"/><use xlink:href="#f" transform="matrix(1,0,0,1,-72,885) translate(0 24.08376736111111)"/><use xlink:href="#X" transform="matrix(1,0,0,1,-259,922) translate(0 24.185329861111114)"/><use xlink:href="#L" transform="matrix(1,0,0,1,-259,922) translate(105.47960069444443 24.185329861111114)"/><use xlink:href="#M" transform="matrix(1,0,0,1,-259,922) translate(139.77864583333331 24.185329861111114)"/><use xlink:href="#Y" transform="matrix(1,0,0,1,-259,922) translate(0 56.450954861111114)"/><use xlink:href="#Z" transform="matrix(1,0,0,1,-259,922) translate(0 88.71657986111111)"/><use xlink:href="#aa" transform="matrix(1,0,0,1,-259,922) translate(85.70963541666667 88.71657986111111)"/><use xlink:href="#ab" transform="matrix(1,0,0,1,-259,922) translate(0 120.98220486111111)"/><use xlink:href="#f" transform="matrix(1,0,0,1,-72,922) translate(0 72.58376736111111)"/><use xlink:href="#ac" transform="matrix(1,0,0,1,-259,1056) translate(0 23.818142361111114)"/><use xlink:href="#v" transform="matrix(1,0,0,1,-259,1056) translate(118.61979166666666 23.818142361111114)"/><use xlink:href="#M" transform="matrix(1,0,0,1,-259,1056) translate(0 56.083767361111114)"/><use xlink:href="#ad" transform="matrix(1,0,0,1,-259,1056) translate(0 88.34939236111111)"/><use xlink:href="#f" transform="matrix(1,0,0,1,-72,1056) translate(0 56.08376736111111)"/><use xlink:href="#ae" transform="matrix(1,0,0,1,-259,1157) translate(0 24.08376736111111)"/><use xlink:href="#s" transform="matrix(1,0,0,1,-72,1157) translate(0 24.08376736111111)"/><use xlink:href="#af" transform="matrix(1,0,0,1,-259,1194) translate(0 23.95095486111111)"/><use xlink:href="#ag" transform="matrix(1,0,0,1,-259,1194) translate(69.97612847222223 23.95095486111111)"/><use xlink:href="#l" transform="matrix(1,0,0,1,-259,1194) translate(164.62673611111111 23.95095486111111)"/><use xlink:href="#ah" transform="matrix(1,0,0,1,-259,1194) translate(0 56.21657986111111)"/><use xlink:href="#p" transform="matrix(1,0,0,1,-72,1194) translate(0 40.083767361111114)"/><path d="M813 903.2v3.96h-66.12v-3.95zm-136.02-8.77h-2.22v9.7l-.22-.26-.65-1.06-.5-1.15-.28-1.22-.1-1.17v-40.44H677z" stroke="#3a414a" stroke-width=".05" fill="#3a414a"/><path d="M814.98 903.2H821v-8.02H825v8.03H833v3.96h-8.02v8.02H821v-8.02H815v8.02H811v-20H815z" stroke="#3a414a" stroke-width=".05" fill="#3a414a"/><path d="M669.05 849.33l2.75 1.42 2.17 2.16 1.4 2.76.52 3.16-.5 3.16-1.43 2.74-2.17 2.17-2.75 1.4-3.16.52-3.17-.5-2.74-1.43-2.18-2.18-1.42-2.74-.5-3.16.5-3.16 1.42-2.75 2.17-2.15 2.73-1.42 3.16-.5zm-33.16 19.5l20-10m-20-10l20 10m0 0h-20" fill="#fff"/><path d="M669.68 847.43l3.3 1.7 2.6 2.6 1.7 3.3.62 3.8-.62 3.77-1.7 3.3-2.6 2.6-3.3 1.7-3.8.62-3.77-.6-3.3-1.72-2.6-2.6-1.7-3.3-.13-.8-17.6 8.78-1.76-3.53 12.53-6.26H635.9v-3.96h11.63L635 850.58l1.78-3.53 17.6 8.8.13-.82 1.7-3.3 2.6-2.6 3.3-1.7 3.8-.6zm-6.32 3.8l-2.2 1.13-1.72 1.73-1.14 2.18-.4 2.54.4 2.53 1.14 2.2 1.73 1.73 2.2 1.13 2.52.42 2.53-.4 2.2-1.14 1.72-1.74 1.13-2.2.4-2.52-.4-2.54-1.13-2.2-1.73-1.72-2.2-1.13-2.53-.4z" stroke="#3a414a" stroke-width=".05" fill="#3a414a"/><use xlink:href="#ai" transform="matrix(1,0,0,1,674.7586307046747,894.4273759363296) translate(0 17.22222222222222)"/><path d="M-362.02 1296.92l.05.7.15.62.24.6.33.52.4.48.5.4.53.34.58.24.6.15.72.06h696.24v3.94h-696.4l-1.17-.1-1.22-.28-1.15-.5-1.07-.64-.94-.82-.82-.95-.65-1.08-.5-1.15-.28-1.22-.1-1.17v-385.5h3.96zM1225.24 903.3l1.22.3 1.15.47 1.07.66.94.8.82.96.65 1.06.5 1.16.28 1.2.1 1.2v385.96l-.1 1.17-.3 1.22-.47 1.15-.64 1.07-.82.94-.95.82-1.08.65-1.15.5-1.22.28-1.17.1H437.5v-3.95h786.42l.7-.06.62-.15.6-.24.52-.33.48-.4.4-.5.34-.52.24-.6.15-.6.06-.7V911.25l-.06-.7-.15-.62-.24-.58-.33-.54-.4-.48-.5-.4-.52-.34-.6-.24-.6-.15-.7-.04H1211v-3.95h13.08zM-423 877v-3.96h5.14V877z" stroke="#3a414a" stroke-width=".05" fill="#3a414a"/><path d="M1202.97 903.2h6.06v-8.02h3.94v20h-3.94v-8.02h-6.06v8.02h-3.94v-8.02H1191v-3.95h8.03v-8.02h3.94z" stroke="#3a414a" stroke-width=".05" fill="#3a414a"/><path d="M-428.94 865.52l2.74 1.42 2.16 2.17 1.43 2.75.5 3.16-.5 3.17-1.44 2.75-2.16 2.17-2.75 1.4-3.16.5-3.17-.5-2.74-1.4-2.18-2.18-1.42-2.75-.5-3.16.5-3.15 1.42-2.74 2.17-2.16 2.73-1.42 3.16-.5zm-33.17 19.5l20-10m-20-10l20 10m0 0h-20" fill="#fff"/><path d="M-428.32 863.62l3.3 1.7 2.6 2.6 1.7 3.3.62 3.8-.62 3.78-1.7 3.3-2.6 2.6-3.3 1.7-3.8.62-3.77-.62-3.3-1.7-2.6-2.6-1.7-3.3-.13-.82-17.6 8.8-1.76-3.53 12.53-6.26h-11.64v-3.96h11.63l-12.52-6.26 1.78-3.53 17.6 8.8.13-.82 1.7-3.3 2.6-2.6 3.3-1.7 3.8-.62zm-6.32 3.8l-2.2 1.14-1.72 1.73-1.14 2.18-.4 2.53.4 2.55 1.14 2.2 1.73 1.72 2.2 1.13 2.52.4 2.53-.4 2.2-1.13 1.72-1.73 1.13-2.2.4-2.53-.4-2.52-1.13-2.2-1.73-1.72-2.2-1.14-2.53-.4z" stroke="#3a414a" stroke-width=".05" fill="#3a414a"/><use xlink:href="#aj" transform="matrix(1,0,0,1,338.3193761704119,1292.2447916666667) translate(0 17.22222222222222)"/><path d="M164.2 860.8h-11.3l-.08.38-.2.48-.27.44-.34.4-.4.34-.43.27-.48.2-.52.13-.44.03H131v-3.95h18.1l.08-.37.2-.48.27-.45.34-.4.4-.33.43-.27.48-.2.52-.12.44-.04h11.93zm124.8 0h-35.86v-3.96H289z" stroke="#3a414a" stroke-width=".05" fill="#3a414a"/><path d="M290.98 856.84h6.04v-8.02h3.96v8.02H309v3.95h-8.02v8.02h-3.96v-8.03h-6.04v8.02h-3.96v-20h3.96zM122.97 859.5h6.06v-8h3.94v20h-3.94v-8.04h-6.06v8.03h-3.94v-8.04H111v-3.95h8.03v-8h3.94z" stroke="#3a414a" stroke-width=".05" fill="#3a414a"/><use xlink:href="#ak" transform="matrix(1,0,0,1,164.18513154420015,835.1564429012345) translate(0 17.22222222222222)"/><use xlink:href="#al" transform="matrix(1,0,0,1,164.18513154420015,835.1564429012345) translate(0 43.034722222222214)"/><path d="M-417.86 877H-443v-3.96h25.14z" stroke="#3a414a" stroke-width=".05" fill="#3a414a"/><path d="M-451.02 873.04h6.04V865h3.96v20h-3.96v-8h-6.04v8h-3.96v-8H-463v-3.96h8.02V865h3.96z" stroke="#3a414a" stroke-width=".05" fill="#3a414a"/><path d="M-292.73 852l2.74 1.42 2.18 2.16 1.42 2.75.5 3.16-.5 3.15-1.42 2.75-2.17 2.16-2.73 1.42-3.16.5-.72-.1V851.6l.73-.1zm26.84 19.5l-20-10m20-10l-20 10m0 0h20" fill="#fff"/><path d="M-292.1 850.1l3.3 1.7 2.6 2.6 1.7 3.3.13.82 17.6-8.8 1.76 3.54-12.53 6.25h11.64v3.96h-11.63l12.52 6.26-1.78 3.54-17.6-8.8-.13.82-1.7 3.3-2.6 2.6-3.3 1.7-3.8.6-.72-.1v-4l.73.1 2.54-.4 2.2-1.13 1.72-1.73 1.14-2.2.4-2.53-.4-2.54-1.14-2.2-1.73-1.73-2.2-1.13-2.52-.4-.72.1v-4l.73-.1z" stroke="#3a414a" stroke-width=".05" fill="#3a414a"/><use xlink:href="#am" transform="matrix(1,0,0,1,-417.85828965672926,838.4463366104868) translate(0 17.22222222222222)"/><use xlink:href="#an" transform="matrix(1,0,0,1,-417.85828965672926,838.4463366104868) translate(0 43.034722222222214)"/><use xlink:href="#ao" transform="matrix(1,0,0,1,-417.85828965672926,838.4463366104868) translate(0 68.84722222222221)"/><path d="M-900 766a6 6 0 0 1 6-6h2158a6 6 0 0 1 6 6v571a6 6 0 0 1-6 6H-894a6 6 0 0 1-6-6z" stroke="#3a414a" stroke-width="2" fill="#fff"/><path d="M-900 673.6a6 6 0 0 1 6-6h302.15a6 6 0 0 1 6 6V742a6 6 0 0 1-6 6H-894a6 6 0 0 1-6-6z" fill="#3a414a"/><use xlink:href="#a" transform="matrix(1,0,0,1,-884,683.6015625) translate(0 39.05078125)"/><use xlink:href="#b" transform="matrix(1,0,0,1,-884,683.6015625) translate(184.86328125 39.05078125)"/><path d="M834 898a12 12 0 0 1 12-12h332a12 12 0 0 1 12 12v307a12 12 0 0 1-12 12H846a12 12 0 0 1-12-12z" fill="#fff0fb"/><path d="M834 926h356v38H834z" fill="#fff0fb"/><path d="M834 963h356v38H834z" fill="#e6d8e2"/><path d="M834 1000h356v38H834z" fill="#fff0fb"/><path d="M834 1037h356v38H834z" fill="#e6d8e2"/><path d="M834 1074h356v70H834z" fill="#fff0fb"/><path d="M834 1143h356v38H834z" fill="#e6d8e2"/><path d="M834 1180h356v25a12 12 0 0 1-12 12H846a12 12 0 0 1-12-12z" fill="#fff0fb"/><path d="M835 926h354-354zM834 898a12 12 0 0 1 12-12h332a12 12 0 0 1 12 12v307a12 12 0 0 1-12 12H846a12 12 0 0 1-12-12zM1012 927v289z" stroke="#ff80df" stroke-width="2" fill="none"/><use xlink:href="#c" transform="matrix(1,0,0,1,844,886) translate(143.20616319444446 28.08376736111111)"/><use xlink:href="#d" transform="matrix(1,0,0,1,839,928.5) translate(0 24.08376736111111)"/><use xlink:href="#e" transform="matrix(1,0,0,1,839,928.5) translate(36.12196180555556 24.08376736111111)"/><use xlink:href="#f" transform="matrix(1,0,0,1,1017,928.5) translate(0 24.08376736111111)"/><use xlink:href="#g" transform="matrix(1,0,0,1,839,965.5) translate(0 24.08376736111111)"/><use xlink:href="#f" transform="matrix(1,0,0,1,1017,965.5) translate(0 24.08376736111111)"/><use xlink:href="#h" transform="matrix(1,0,0,1,839,1002.5) translate(0 24.08376736111111)"/><use xlink:href="#f" transform="matrix(1,0,0,1,1017,1002.5) translate(0 24.08376736111111)"/><use xlink:href="#i" transform="matrix(1,0,0,1,839,1039.5) translate(0 24.08376736111111)"/><use xlink:href="#f" transform="matrix(1,0,0,1,1017,1039.5) translate(0 24.08376736111111)"/><use xlink:href="#j" transform="matrix(1,0,0,1,839,1076.5) translate(0 23.95095486111111)"/><use xlink:href="#k" transform="matrix(1,0,0,1,839,1076.5) translate(45.90928819444444 23.95095486111111)"/><use xlink:href="#l" transform="matrix(1,0,0,1,839,1076.5) translate(140.4296875 23.95095486111111)"/><use xlink:href="#m" transform="matrix(1,0,0,1,839,1076.5) translate(0 56.21657986111111)"/><use xlink:href="#n" transform="matrix(1,0,0,1,839,1076.5) translate(56.564670138888886 56.21657986111111)"/><use xlink:href="#o" transform="matrix(1,0,0,1,839,1076.5) translate(70.20399305555556 56.21657986111111)"/><use xlink:href="#p" transform="matrix(1,0,0,1,1017,1076.5) translate(0 40.083767361111114)"/><use xlink:href="#q" transform="matrix(1,0,0,1,839,1145.5) translate(0 24.08376736111111)"/><use xlink:href="#f" transform="matrix(1,0,0,1,1017,1145.5) translate(0 24.08376736111111)"/><use xlink:href="#r" transform="matrix(1,0,0,1,839,1182.5) translate(0 24.08376736111111)"/><use xlink:href="#s" transform="matrix(1,0,0,1,1017,1182.5) translate(0 24.08376736111111)"/><path d="M310 852a12 12 0 0 1 12-12h300a12 12 0 0 1 12 12v399a12 12 0 0 1-12 12H322a12 12 0 0 1-12-12z" fill="#edf5ff"/><path d="M310 880h324v38H310z" fill="#edf5ff"/><path d="M310 917h324v70H310z" fill="#d5dde6"/><path d="M310 986h324v135H310z" fill="#edf5ff"/><path d="M310 1120h324v38H310z" fill="#d5dde6"/><path d="M310 1157h324v70H310z" fill="#edf5ff"/><path d="M310 1226h324v25a12 12 0 0 1-12 12H322a12 12 0 0 1-12-12z" fill="#d5dde6"/><path d="M311 880h322-322zM310 852a12 12 0 0 1 12-12h300a12 12 0 0 1 12 12v399a12 12 0 0 1-12 12H322a12 12 0 0 1-12-12zM472 881v381z" stroke="#6db1ff" stroke-width="2" fill="none"/><use xlink:href="#t" transform="matrix(1,0,0,1,320,840) translate(80.98763020833334 28.08376736111111)"/><use xlink:href="#d" transform="matrix(1,0,0,1,315,882.5) translate(0 24.08376736111111)"/><use xlink:href="#e" transform="matrix(1,0,0,1,315,882.5) translate(36.12196180555556 24.08376736111111)"/><use xlink:href="#f" transform="matrix(1,0,0,1,477,882.5) translate(0 24.08376736111111)"/><use xlink:href="#u" transform="matrix(1,0,0,1,315,919.5) translate(0 23.95095486111111)"/><use xlink:href="#v" transform="matrix(1,0,0,1,315,919.5) translate(88.50911458333333 23.95095486111111)"/><use xlink:href="#w" transform="matrix(1,0,0,1,315,919.5) translate(0 56.21657986111111)"/><use xlink:href="#x" transform="matrix(1,0,0,1,315,919.5) translate(41.525607638888886 56.21657986111111)"/><use xlink:href="#f" transform="matrix(1,0,0,1,477,919.5) translate(0 40.083767361111114)"/><use xlink:href="#y" transform="matrix(1,0,0,1,315,988.5) translate(0 24.185329861111114)"/><use xlink:href="#z" transform="matrix(1,0,0,1,315,988.5) translate(0 56.450954861111114)"/><use xlink:href="#l" transform="matrix(1,0,0,1,315,988.5) translate(116.22178819444446 56.450954861111114)"/><use xlink:href="#A" transform="matrix(1,0,0,1,315,988.5) translate(0 88.71657986111111)"/><use xlink:href="#l" transform="matrix(1,0,0,1,315,988.5) translate(144.3359375 88.71657986111111)"/><use xlink:href="#B" transform="matrix(1,0,0,1,315,988.5) translate(0 120.98220486111111)"/><use xlink:href="#p" transform="matrix(1,0,0,1,477,988.5) translate(0 72.58376736111111)"/><use xlink:href="#C" transform="matrix(1,0,0,1,315,1122.5) translate(0 24.08376736111111)"/><use xlink:href="#D" transform="matrix(1,0,0,1,315,1122.5) translate(89.80034722222221 24.08376736111111)"/><use xlink:href="#E" transform="matrix(1,0,0,1,477,1122.5) translate(0 24.08376736111111)"/><use xlink:href="#F" transform="matrix(1,0,0,1,315,1159.5) translate(0 23.95095486111111)"/><use xlink:href="#G" transform="matrix(1,0,0,1,315,1159.5) translate(0 56.21657986111111)"/><use xlink:href="#H" transform="matrix(1,0,0,1,477,1159.5) translate(0 40.083767361111114)"/><use xlink:href="#I" transform="matrix(1,0,0,1,315,1228.5) translate(0 24.08376736111111)"/><use xlink:href="#f" transform="matrix(1,0,0,1,477,1228.5) translate(0 24.08376736111111)"/><path d="M-820 868a12 12 0 0 1 12-12h332a12 12 0 0 1 12 12v367a12 12 0 0 1-12 12h-332a12 12 0 0 1-12-12z" fill="#f4d9ff"/><path d="M-820 896h356v38h-356z" fill="#f4d9ff"/><path d="M-820 933h356v70h-356z" fill="#dcc3e6"/><path d="M-820 1002h356v135h-356z" fill="#f4d9ff"/><path d="M-820 1136h356v38h-356z" fill="#dcc3e6"/><path d="M-820 1173h356v38h-356z" fill="#f4d9ff"/><path d="M-820 1210h356v25a12 12 0 0 1-12 12h-332a12 12 0 0 1-12-12z" fill="#dcc3e6"/><path d="M-819 896h354-354zM-820 868a12 12 0 0 1 12-12h332a12 12 0 0 1 12 12v367a12 12 0 0 1-12 12h-332a12 12 0 0 1-12-12zM-642 897v349z" stroke="#e08fff" stroke-width="2" fill="none"/><g><use xlink:href="#J" transform="matrix(1,0,0,1,-810,856) translate(118.61306423611111 28.08376736111111)"/></g><g><use xlink:href="#d" transform="matrix(1,0,0,1,-815,898.5) translate(0 24.08376736111111)"/><use xlink:href="#e" transform="matrix(1,0,0,1,-815,898.5) translate(36.12196180555556 24.08376736111111)"/></g><g><use xlink:href="#f" transform="matrix(1,0,0,1,-637,898.5) translate(0 24.08376736111111)"/></g><g><use xlink:href="#K" transform="matrix(1,0,0,1,-815,935.5) translate(0 23.95095486111111)"/><use xlink:href="#L" transform="matrix(1,0,0,1,-815,935.5) translate(91.73177083333333 23.95095486111111)"/><use xlink:href="#M" transform="matrix(1,0,0,1,-815,935.5) translate(126.03081597222221 23.95095486111111)"/><use xlink:href="#x" transform="matrix(1,0,0,1,-815,935.5) translate(0 56.21657986111111)"/></g><g><use xlink:href="#f" transform="matrix(1,0,0,1,-637,935.5) translate(0 40.083767361111114)"/></g><g><use xlink:href="#N" transform="matrix(1,0,0,1,-815,1004.5) translate(0 24.185329861111114)"/><use xlink:href="#O" transform="matrix(1,0,0,1,-815,1004.5) translate(53.00564236111111 24.185329861111114)"/><use xlink:href="#n" transform="matrix(1,0,0,1,-815,1004.5) translate(0 56.450954861111114)"/><use xlink:href="#P" transform="matrix(1,0,0,1,-815,1004.5) translate(13.639322916666666 56.450954861111114)"/><use xlink:href="#l" transform="matrix(1,0,0,1,-815,1004.5) translate(83.02951388888889 56.450954861111114)"/><use xlink:href="#Q" transform="matrix(1,0,0,1,-815,1004.5) translate(0 88.71657986111111)"/><use xlink:href="#l" transform="matrix(1,0,0,1,-815,1004.5) translate(141.05902777777777 88.71657986111111)"/><use xlink:href="#R" transform="matrix(1,0,0,1,-815,1004.5) translate(0 120.98220486111111)"/></g><g><use xlink:href="#p" transform="matrix(1,0,0,1,-637,1004.5) translate(0 72.58376736111111)"/></g><g><use xlink:href="#S" transform="matrix(1,0,0,1,-815,1138.5) translate(0 24.08376736111111)"/></g><g><use xlink:href="#E" transform="matrix(1,0,0,1,-637,1138.5) translate(0 24.08376736111111)"/></g><g><use xlink:href="#T" transform="matrix(1,0,0,1,-815,1175.5) translate(0 24.08376736111111)"/></g><g><use xlink:href="#U" transform="matrix(1,0,0,1,-637,1175.5) translate(0 24.08376736111111)"/></g><g><use xlink:href="#V" transform="matrix(1,0,0,1,-815,1212.5) translate(0 24.08376736111111)"/></g><g><use xlink:href="#s" transform="matrix(1,0,0,1,-637,1212.5) translate(0 24.08376736111111)"/></g><path d="M-264 854.5a12 12 0 0 1 12-12H98a12 12 0 0 1 12 12v394a12 12 0 0 1-12 12h-350a12 12 0 0 1-12-12z" fill="#fff3d9"/><path d="M-264 882.5h374v38h-374z" fill="#fff3d9"/><path d="M-264 919.5h374v135h-374z" fill="#e6dbc3"/><path d="M-264 1053.5h374v102h-374z" fill="#fff3d9"/><path d="M-264 1154.5h374v38h-374z" fill="#e6dbc3"/><path d="M-264 1191.5h374v57a12 12 0 0 1-12 12h-350a12 12 0 0 1-12-12z" fill="#fff3d9"/><path d="M-263 882.5h372-372zM-264 854.5a12 12 0 0 1 12-12H98a12 12 0 0 1 12 12v394a12 12 0 0 1-12 12h-350a12 12 0 0 1-12-12zM-77 883.5v376z" stroke="#fcce14" stroke-width="2" fill="none"/><g><use xlink:href="#W" transform="matrix(1,0,0,1,-254,842.5) translate(125.0414496527778 28.08376736111111)"/></g><g><use xlink:href="#d" transform="matrix(1,0,0,1,-259,885) translate(0 24.08376736111111)"/><use xlink:href="#e" transform="matrix(1,0,0,1,-259,885) translate(36.12196180555556 24.08376736111111)"/></g><g><use xlink:href="#f" transform="matrix(1,0,0,1,-72,885) translate(0 24.08376736111111)"/></g><g><use xlink:href="#X" transform="matrix(1,0,0,1,-259,922) translate(0 24.185329861111114)"/><use xlink:href="#L" transform="matrix(1,0,0,1,-259,922) translate(105.47960069444443 24.185329861111114)"/><use xlink:href="#M" transform="matrix(1,0,0,1,-259,922) translate(139.77864583333331 24.185329861111114)"/><use xlink:href="#Y" transform="matrix(1,0,0,1,-259,922) translate(0 56.450954861111114)"/><use xlink:href="#Z" transform="matrix(1,0,0,1,-259,922) translate(0 88.71657986111111)"/><use xlink:href="#aa" transform="matrix(1,0,0,1,-259,922) translate(85.70963541666667 88.71657986111111)"/><use xlink:href="#ab" transform="matrix(1,0,0,1,-259,922) translate(0 120.98220486111111)"/></g><g><use xlink:href="#f" transform="matrix(1,0,0,1,-72,922) translate(0 72.58376736111111)"/></g><g><use xlink:href="#ac" transform="matrix(1,0,0,1,-259,1056) translate(0 23.818142361111114)"/><use xlink:href="#v" transform="matrix(1,0,0,1,-259,1056) translate(118.61979166666666 23.818142361111114)"/><use xlink:href="#M" transform="matrix(1,0,0,1,-259,1056) translate(0 56.083767361111114)"/><use xlink:href="#ad" transform="matrix(1,0,0,1,-259,1056) translate(0 88.34939236111111)"/></g><g><use xlink:href="#f" transform="matrix(1,0,0,1,-72,1056) translate(0 56.08376736111111)"/></g><g><use xlink:href="#ae" transform="matrix(1,0,0,1,-259,1157) translate(0 24.08376736111111)"/></g><g><use xlink:href="#s" transform="matrix(1,0,0,1,-72,1157) translate(0 24.08376736111111)"/></g><g><use xlink:href="#af" transform="matrix(1,0,0,1,-259,1194) translate(0 23.95095486111111)"/><use xlink:href="#ag" transform="matrix(1,0,0,1,-259,1194) translate(69.97612847222223 23.95095486111111)"/><use xlink:href="#l" transform="matrix(1,0,0,1,-259,1194) translate(164.62673611111111 23.95095486111111)"/><use xlink:href="#ah" transform="matrix(1,0,0,1,-259,1194) translate(0 56.21657986111111)"/></g><g><use xlink:href="#p" transform="matrix(1,0,0,1,-72,1194) translate(0 40.083767361111114)"/></g><path d="M813 903.2v3.96h-66.12v-3.95zm-136.02-8.77h-2.22v9.7l-.22-.26-.65-1.06-.5-1.15-.28-1.22-.1-1.17v-40.44H677z" stroke="#3a414a" stroke-width=".05" fill="#3a414a"/><path d="M814.98 903.2H821v-8.02H825v8.03H833v3.96h-8.02v8.02H821v-8.02H815v8.02H811v-20H815z" stroke="#3a414a" stroke-width=".05" fill="#3a414a"/><path d="M669.05 849.33l2.75 1.42 2.17 2.16 1.4 2.76.52 3.16-.5 3.16-1.43 2.74-2.17 2.17-2.75 1.4-3.16.52-3.17-.5-2.74-1.43-2.18-2.18-1.42-2.74-.5-3.16.5-3.16 1.42-2.75 2.17-2.15 2.73-1.42 3.16-.5zm-33.16 19.5l20-10m-20-10l20 10m0 0h-20" fill="#fff"/><path d="M669.68 847.43l3.3 1.7 2.6 2.6 1.7 3.3.62 3.8-.62 3.77-1.7 3.3-2.6 2.6-3.3 1.7-3.8.62-3.77-.6-3.3-1.72-2.6-2.6-1.7-3.3-.13-.8-17.6 8.78-1.76-3.53 12.53-6.26H635.9v-3.96h11.63L635 850.58l1.78-3.53 17.6 8.8.13-.82 1.7-3.3 2.6-2.6 3.3-1.7 3.8-.6zm-6.32 3.8l-2.2 1.13-1.72 1.73-1.14 2.18-.4 2.54.4 2.53 1.14 2.2 1.73 1.73 2.2 1.13 2.52.42 2.53-.4 2.2-1.14 1.72-1.74 1.13-2.2.4-2.52-.4-2.54-1.13-2.2-1.73-1.72-2.2-1.13-2.53-.4z" stroke="#3a414a" stroke-width=".05" fill="#3a414a"/><g><use xlink:href="#ai" transform="matrix(1,0,0,1,674.7586307046747,894.4273759363296) translate(0 17.22222222222222)"/></g><path d="M-362.02 1296.92l.05.7.15.62.24.6.33.52.4.48.5.4.53.34.58.24.6.15.72.06h696.24v3.94h-696.4l-1.17-.1-1.22-.28-1.15-.5-1.07-.64-.94-.82-.82-.95-.65-1.08-.5-1.15-.28-1.22-.1-1.17v-385.5h3.96zM1225.24 903.3l1.22.3 1.15.47 1.07.66.94.8.82.96.65 1.06.5 1.16.28 1.2.1 1.2v385.96l-.1 1.17-.3 1.22-.47 1.15-.64 1.07-.82.94-.95.82-1.08.65-1.15.5-1.22.28-1.17.1H437.5v-3.95h786.42l.7-.06.62-.15.6-.24.52-.33.48-.4.4-.5.34-.52.24-.6.15-.6.06-.7V911.25l-.06-.7-.15-.62-.24-.58-.33-.54-.4-.48-.5-.4-.52-.34-.6-.24-.6-.15-.7-.04H1211v-3.95h13.08zM-423 877v-3.96h5.14V877z" stroke="#3a414a" stroke-width=".05" fill="#3a414a"/><path d="M1202.97 903.2h6.06v-8.02h3.94v20h-3.94v-8.02h-6.06v8.02h-3.94v-8.02H1191v-3.95h8.03v-8.02h3.94z" stroke="#3a414a" stroke-width=".05" fill="#3a414a"/><path d="M-428.94 865.52l2.74 1.42 2.16 2.17 1.43 2.75.5 3.16-.5 3.17-1.44 2.75-2.16 2.17-2.75 1.4-3.16.5-3.17-.5-2.74-1.4-2.18-2.18-1.42-2.75-.5-3.16.5-3.15 1.42-2.74 2.17-2.16 2.73-1.42 3.16-.5zm-33.17 19.5l20-10m-20-10l20 10m0 0h-20" fill="#fff"/><path d="M-428.32 863.62l3.3 1.7 2.6 2.6 1.7 3.3.62 3.8-.62 3.78-1.7 3.3-2.6 2.6-3.3 1.7-3.8.62-3.77-.62-3.3-1.7-2.6-2.6-1.7-3.3-.13-.82-17.6 8.8-1.76-3.53 12.53-6.26h-11.64v-3.96h11.63l-12.52-6.26 1.78-3.53 17.6 8.8.13-.82 1.7-3.3 2.6-2.6 3.3-1.7 3.8-.62zm-6.32 3.8l-2.2 1.14-1.72 1.73-1.14 2.18-.4 2.53.4 2.55 1.14 2.2 1.73 1.72 2.2 1.13 2.52.4 2.53-.4 2.2-1.13 1.72-1.73 1.13-2.2.4-2.53-.4-2.52-1.13-2.2-1.73-1.72-2.2-1.14-2.53-.4z" stroke="#3a414a" stroke-width=".05" fill="#3a414a"/><g><use xlink:href="#aj" transform="matrix(1,0,0,1,338.3193761704119,1292.2447916666667) translate(0 17.22222222222222)"/></g><path d="M164.2 860.8h-11.3l-.08.38-.2.48-.27.44-.34.4-.4.34-.43.27-.48.2-.52.13-.44.03H131v-3.95h18.1l.08-.37.2-.48.27-.45.34-.4.4-.33.43-.27.48-.2.52-.12.44-.04h11.93zm124.8 0h-35.86v-3.96H289z" stroke="#3a414a" stroke-width=".05" fill="#3a414a"/><path d="M290.98 856.84h6.04v-8.02h3.96v8.02H309v3.95h-8.02v8.02h-3.96v-8.03h-6.04v8.02h-3.96v-20h3.96zM122.97 859.5h6.06v-8h3.94v20h-3.94v-8.04h-6.06v8.03h-3.94v-8.04H111v-3.95h8.03v-8h3.94z" stroke="#3a414a" stroke-width=".05" fill="#3a414a"/><g><use xlink:href="#ak" transform="matrix(1,0,0,1,164.18513154420015,835.1564429012345) translate(0 17.22222222222222)"/><use xlink:href="#al" transform="matrix(1,0,0,1,164.18513154420015,835.1564429012345) translate(0 43.034722222222214)"/></g><path d="M-417.86 877H-443v-3.96h25.14z" stroke="#3a414a" stroke-width=".05" fill="#3a414a"/><path d="M-451.02 873.04h6.04V865h3.96v20h-3.96v-8h-6.04v8h-3.96v-8H-463v-3.96h8.02V865h3.96z" stroke="#3a414a" stroke-width=".05" fill="#3a414a"/><path d="M-292.73 852l2.74 1.42 2.18 2.16 1.42 2.75.5 3.16-.5 3.15-1.42 2.75-2.17 2.16-2.73 1.42-3.16.5-.72-.1V851.6l.73-.1zm26.84 19.5l-20-10m20-10l-20 10m0 0h20" fill="#fff"/><path d="M-292.1 850.1l3.3 1.7 2.6 2.6 1.7 3.3.13.82 17.6-8.8 1.76 3.54-12.53 6.25h11.64v3.96h-11.63l12.52 6.26-1.78 3.54-17.6-8.8-.13.82-1.7 3.3-2.6 2.6-3.3 1.7-3.8.6-.72-.1v-4l.73.1 2.54-.4 2.2-1.13 1.72-1.73 1.14-2.2.4-2.53-.4-2.54-1.14-2.2-1.73-1.73-2.2-1.13-2.52-.4-.72.1v-4l.73-.1z" stroke="#3a414a" stroke-width=".05" fill="#3a414a"/><g><use xlink:href="#am" transform="matrix(1,0,0,1,-417.85828965672926,838.4463366104868) translate(0 17.22222222222222)"/><use xlink:href="#an" transform="matrix(1,0,0,1,-417.85828965672926,838.4463366104868) translate(0 43.034722222222214)"/><use xlink:href="#ao" transform="matrix(1,0,0,1,-417.85828965672926,838.4463366104868) translate(0 68.84722222222221)"/></g><defs><path fill="#fff" d="M232-923l-22-567h194l-22 567H232zm340 0l-22-567h194l-22 567H572" id="ap"/><path fill="#fff" d="M180 0v-1490h190v1322h690V0H180" id="aq"/><path fill="#fff" d="M158 0v-1118h180V0H158zm91-1301c-68 0-125-53-125-119s57-119 125-119c69 0 126 53 126 119s-57 119-126 119" id="ar"/><path fill="#fff" d="M678-1118v154H420V0H240v-964H20v-154h220v-149c0-194 155-293 318-293 85 0 141 18 168 30l-50 154c-19-6-47-17-97-17-111 0-159 58-159 166v109h258" id="as"/><path fill="#fff" d="M628 24c-324 0-524-230-524-574 0-343 198-582 503-582 237 0 487 146 487 559v75H286c9 234 145 362 343 362 132 0 231-58 273-172l174 48C1024-91 857 24 628 24zM287-650h624c-17-190-120-322-304-322-192 0-309 151-320 322" id="at"/><path fill="#fff" d="M657 26c-323 0-524-166-541-416h195c15 169 171 246 346 246 202 0 356-106 356-265 5-203-294-238-475-293-239-73-380-191-380-389 0-252 224-419 512-419 294 0 499 171 508 396H992c-17-145-151-228-328-228-193 0-321 102-321 242 0 156 175 211 284 241l149 41c160 44 422 134 422 412 0 244-197 432-541 432" id="au"/><path fill="#fff" d="M598-1118v154H368v674c0 100 37 144 132 144 23 0 62-6 92-12L629-6c-37 13-88 20-134 20-193 0-307-107-307-290v-688H20v-154h168v-266h180v266h230" id="av"/><path fill="#fff" d="M537 14c-226 0-379-139-379-422v-710h180v695c0 172 97 275 253 275 160 0 281-109 281-300v-670h181V0H879v-209C806-46 684 14 537 14" id="aw"/><g id="a"><use transform="matrix(0.01953125,0,0,0.01953125,0,0)" xlink:href="#ap"/><use transform="matrix(0.01953125,0,0,0.01953125,18.6328125,0)" xlink:href="#aq"/><use transform="matrix(0.01953125,0,0,0.01953125,41.25,0)" xlink:href="#ar"/><use transform="matrix(0.01953125,0,0,0.01953125,50.9375,0)" xlink:href="#as"/><use transform="matrix(0.01953125,0,0,0.01953125,64.5703125,0)" xlink:href="#at"/><use transform="matrix(0.01953125,0,0,0.01953125,87.890625,0)" xlink:href="#au"/><use transform="matrix(0.01953125,0,0,0.01953125,113.5546875,0)" xlink:href="#at"/><use transform="matrix(0.01953125,0,0,0.01953125,136.875,0)" xlink:href="#av"/><use transform="matrix(0.01953125,0,0,0.01953125,149.9609375,0)" xlink:href="#aw"/></g><path fill="#fff" d="M180 0v-1490h908v168H370v486h669v168H370v500h727V0H180" id="ax"/><path fill="#fff" d="M180 0v-1490h510c348 0 508 194 508 460 0 198-88 351-276 417L1256 0h-220L726-579c-117 2-238 0-356 1V0H180zm190-747h312c235 0 327-108 327-283 0-177-92-293-329-293H370v576" id="ay"/><path fill="#fff" d="M645 0H180v-1490h484c435 0 692 280 692 742 0 466-257 748-711 748zM370-168h263c363 0 539-218 539-580 0-358-176-574-521-574H370v1154" id="az"/><g id="b"><use transform="matrix(0.01953125,0,0,0.01953125,0,0)" xlink:href="#ax"/><use transform="matrix(0.01953125,0,0,0.01953125,24.04296875,0)" xlink:href="#ay"/><use transform="matrix(0.01953125,0,0,0.01953125,49.78515625,0)" xlink:href="#az"/><use transform="matrix(0.01953125,0,0,0.01953125,78.65234375,0)" xlink:href="#ap"/></g><path d="M763 24c-353 0-583-224-583-531v-983h190v968c0 214 149 370 393 370 243 0 391-156 391-370v-968h190v983c0 307-230 531-581 531" id="aA"/><path d="M538 24C308 24 148-78 108-271l171-41c32 123 123 178 257 178 156 0 256-77 256-169 0-77-54-128-164-154l-186-44c-203-48-300-148-300-305 0-192 176-326 414-326 230 0 351 112 402 269l-163 42c-31-80-94-158-238-158-133 0-233 69-233 162 0 83 57 129 188 160l169 40c203 48 298 149 298 302 0 196-179 339-441 339" id="aB"/><path d="M628 24c-324 0-524-230-524-574 0-343 198-582 503-582 237 0 487 146 487 559v75H286c9 234 145 362 343 362 132 0 231-58 273-172l174 48C1024-91 857 24 628 24zM287-650h624c-17-190-120-322-304-322-192 0-309 151-320 322" id="aC"/><path d="M158 0v-1118h174v172h12c41-113 157-188 290-188 26 0 70 2 91 3v181c-11-2-60-10-108-10-161 0-279 109-279 260V0H158" id="aD"/><g id="c"><use transform="matrix(0.010850694444444444,0,0,0.010850694444444444,0,0)" xlink:href="#aA"/><use transform="matrix(0.010850694444444444,0,0,0.010850694444444444,16.536458333333332,0)" xlink:href="#aB"/><use transform="matrix(0.010850694444444444,0,0,0.010850694444444444,28.266059027777775,0)" xlink:href="#aC"/><use transform="matrix(0.010850694444444444,0,0,0.010850694444444444,41.22178819444444,0)" xlink:href="#aD"/></g><path d="M934 0v166H0V0h934" id="aE"/><path d="M158 0v-1118h180V0H158zm91-1301c-68 0-125-53-125-119s57-119 125-119c69 0 126 53 126 119s-57 119-126 119" id="aF"/><path d="M577 24c-279 0-473-224-473-580 0-354 195-576 474-576 218 0 287 134 324 193h14v-551h180V0H922v-173h-20C865-111 790 24 577 24zm27-161c203 0 314-172 314-421 0-247-108-413-314-413-212 0-317 181-317 413 0 235 108 421 317 421" id="aG"/><g id="d"><use transform="matrix(0.010850694444444444,0,0,0.010850694444444444,0,0)" xlink:href="#aE"/><use transform="matrix(0.010850694444444444,0,0,0.010850694444444444,10.883246527777777,0)" xlink:href="#aF"/><use transform="matrix(0.010850694444444444,0,0,0.010850694444444444,16.26519097222222,0)" xlink:href="#aG"/></g><path d="M180 0v-1490h510c348 0 508 209 508 474 0 266-160 477-507 477H370V0H180zm190-706h312c236 0 327-133 327-310 0-176-91-307-329-307H370v617" id="aH"/><path d="M180 0v-1490h190c0 262 1 526-3 784 217-279 467-523 702-784h249L716-845 1319 0h-225L585-716 370-489V0H180" id="aI"/><g id="e"><use transform="matrix(0.010850694444444444,0,0,0.010850694444444444,0,0)" xlink:href="#aH"/><use transform="matrix(0.010850694444444444,0,0,0.010850694444444444,14.192708333333332,0)" xlink:href="#aI"/></g><path d="M598-1118v154H368v674c0 100 37 144 132 144 23 0 62-6 92-12L629-6c-37 13-88 20-134 20-193 0-307-107-307-290v-688H20v-154h168v-266h180v266h230" id="aJ"/><path d="M338-670V0H158v-1118h173l1 207c72-158 192-221 342-221 226 0 378 139 378 422V0H872v-695c0-172-96-275-252-275-161 0-282 109-282 300" id="aK"/><path d="M611 442c-248 0-391-105-460-228l146-94c47 65 117 165 314 165 178 0 307-82 307-266v-224h-17C863-141 792-18 576-18c-268 0-472-195-472-546 0-346 197-568 476-568 216 0 288 133 326 193h17v-179h175V29c0 289-215 413-487 413zm-5-620c203 0 314-146 314-390 0-237-108-403-314-403-213 0-319 180-319 403 0 230 109 390 319 390" id="aL"/><g id="f"><use transform="matrix(0.010850694444444444,0,0,0.010850694444444444,0,0)" xlink:href="#aB"/><use transform="matrix(0.010850694444444444,0,0,0.010850694444444444,11.729600694444445,0)" xlink:href="#aJ"/><use transform="matrix(0.010850694444444444,0,0,0.010850694444444444,18.99956597222222,0)" xlink:href="#aD"/><use transform="matrix(0.010850694444444444,0,0,0.010850694444444444,27.712673611111104,0)" xlink:href="#aF"/><use transform="matrix(0.010850694444444444,0,0,0.010850694444444444,33.09461805555555,0)" xlink:href="#aK"/><use transform="matrix(0.010850694444444444,0,0,0.010850694444444444,46.22395833333333,0)" xlink:href="#aL"/></g><path d="M471 26C259 26 90-98 90-318c0-256 228-303 435-329 202-27 287-16 287-108 0-139-79-219-234-219-161 0-248 86-283 164l-173-57c86-203 278-265 451-265 150 0 419 46 419 395V0H815v-152h-12C765-73 660 26 471 26zm31-159c199 0 310-134 310-271v-155c-30 35-226 55-295 64-131 17-246 59-246 186 0 116 97 176 231 176" id="aM"/><path d="M158 0v-1118h175l1 205c55-151 181-225 313-225 147 0 245 90 285 228 53-141 190-228 352-228 194 0 352 125 352 384V0h-181v-749c0-161-105-225-225-225-151 0-243 103-243 244V0H807v-767c0-124-93-207-219-207-131 0-250 92-250 270V0H158" id="aN"/><g id="g"><use transform="matrix(0.010850694444444444,0,0,0.010850694444444444,0,0)" xlink:href="#aK"/><use transform="matrix(0.010850694444444444,0,0,0.010850694444444444,13.129340277777777,0)" xlink:href="#aM"/><use transform="matrix(0.010850694444444444,0,0,0.010850694444444444,25.60763888888889,0)" xlink:href="#aN"/><use transform="matrix(0.010850694444444444,0,0,0.010850694444444444,45.07378472222221,0)" xlink:href="#aC"/></g><path d="M338-1490V0H158v-1490h180" id="aO"/><g id="h"><use transform="matrix(0.010850694444444444,0,0,0.010850694444444444,0,0)" xlink:href="#aC"/><use transform="matrix(0.010850694444444444,0,0,0.010850694444444444,12.955729166666666,0)" xlink:href="#aN"/><use transform="matrix(0.010850694444444444,0,0,0.010850694444444444,32.421875,0)" xlink:href="#aM"/><use transform="matrix(0.010850694444444444,0,0,0.010850694444444444,44.90017361111111,0)" xlink:href="#aF"/><use transform="matrix(0.010850694444444444,0,0,0.010850694444444444,50.28211805555556,0)" xlink:href="#aO"/></g><path d="M158 418v-1536h174v179h20c37-59 106-193 324-193 279 0 474 222 474 576 0 356-194 580-473 580-213 0-288-135-325-197h-14v591H158zm492-555c209 0 317-186 317-421 0-232-105-413-317-413-206 0-314 166-314 413 0 249 111 421 314 421" id="aP"/><path d="M409 0L70-1118h191c89 329 165 560 243 925 75-353 154-601 240-925h192c85 325 161 564 235 922 77-354 157-598 244-922h191L1267 0h-179c-86-307-176-590-250-913C763-588 675-308 588 0H409" id="aQ"/><path d="M613 24c-304 0-509-231-509-576 0-350 205-580 509-580 305 0 511 230 511 580 0 345-206 576-511 576zm0-161c226 0 329-195 329-415 0-222-103-419-329-419-223 0-326 196-326 419 0 220 103 415 326 415" id="aR"/><path d="M180 0v-1490h190v644h782v-644h190V0h-190v-678H370V0H180" id="aS"/><path d="M338-670V0H158v-1490h180v566c73-149 190-208 336-208 226 0 379 139 379 422V0H872v-695c0-172-96-275-252-275-161 0-282 109-282 300" id="aT"/><g id="i"><use transform="matrix(0.010850694444444444,0,0,0.010850694444444444,0,0)" xlink:href="#aP"/><use transform="matrix(0.010850694444444444,0,0,0.010850694444444444,13.823784722222221,0)" xlink:href="#aM"/><use transform="matrix(0.010850694444444444,0,0,0.010850694444444444,26.302083333333332,0)" xlink:href="#aB"/><use transform="matrix(0.010850694444444444,0,0,0.010850694444444444,38.03168402777778,0)" xlink:href="#aB"/><use transform="matrix(0.010850694444444444,0,0,0.010850694444444444,49.76128472222222,0)" xlink:href="#aQ"/><use transform="matrix(0.010850694444444444,0,0,0.010850694444444444,67.54557291666667,0)" xlink:href="#aR"/><use transform="matrix(0.010850694444444444,0,0,0.010850694444444444,80.87022569444444,0)" xlink:href="#aD"/><use transform="matrix(0.010850694444444444,0,0,0.010850694444444444,88.8671875,0)" xlink:href="#aG"/><use transform="matrix(0.010850694444444444,0,0,0.010850694444444444,102.47395833333333,0)" xlink:href="#aS"/><use transform="matrix(0.010850694444444444,0,0,0.010850694444444444,118.98871527777777,0)" xlink:href="#aM"/><use transform="matrix(0.010850694444444444,0,0,0.010850694444444444,131.46701388888889,0)" xlink:href="#aB"/><use transform="matrix(0.010850694444444444,0,0,0.010850694444444444,143.19661458333334,0)" xlink:href="#aT"/></g><g id="j"><use transform="matrix(0.010850694444444444,0,0,0.010850694444444444,0,0)" xlink:href="#aD"/><use transform="matrix(0.010850694444444444,0,0,0.010850694444444444,7.996961805555555,0)" xlink:href="#aR"/><use transform="matrix(0.010850694444444444,0,0,0.010850694444444444,21.321614583333332,0)" xlink:href="#aO"/><use transform="matrix(0.010850694444444444,0,0,0.010850694444444444,26.70355902777778,0)" xlink:href="#aC"/></g><path d="M232-923l-22-567h194l-22 567H232zm340 0l-22-567h194l-22 567H572" id="aU"/><path d="M600 0L52-1490h200c166 485 304 806 458 1336 156-533 285-846 449-1336h202L819 0H600" id="aV"/><path d="M370-1490V0H180v-1490h190" id="aW"/><path d="M783 20c-382 0-661-292-661-764 0-473 279-766 661-766 302 0 548 182 601 489h-190c-42-204-217-313-411-313-268 0-476 208-476 590 0 381 209 588 476 588 195 0 369-110 411-313h190c-52 303-296 489-601 489" id="aX"/><path d="M98-1322v-168h1126v168H757V0H567v-1322H98" id="aY"/><path d="M180 0v-1490h270l367 940c28 72 75 218 110 339 35-117 81-264 110-339l362-940h271V0h-187c2-448-5-837 7-1287-157 497-311 829-483 1287H842C666-458 514-784 354-1284c12 438 5 843 7 1284H180" id="aZ"/><g id="k"><use transform="matrix(0.010850694444444444,0,0,0.010850694444444444,0,0)" xlink:href="#aU"/><use transform="matrix(0.010850694444444444,0,0,0.010850694444444444,10.3515625,0)" xlink:href="#aV"/><use transform="matrix(0.010850694444444444,0,0,0.010850694444444444,25.68359375,0)" xlink:href="#aW"/><use transform="matrix(0.010850694444444444,0,0,0.010850694444444444,31.651475694444443,0)" xlink:href="#aX"/><use transform="matrix(0.010850694444444444,0,0,0.010850694444444444,47.88411458333333,0)" xlink:href="#aY"/><use transform="matrix(0.010850694444444444,0,0,0.010850694444444444,62.228732638888886,0)" xlink:href="#aW"/><use transform="matrix(0.010850694444444444,0,0,0.010850694444444444,68.19661458333333,0)" xlink:href="#aZ"/></g><path d="M419-1970V480H262v-2450h157" id="ba"/><use transform="matrix(0.010850694444444444,0,0,0.010850694444444444,0,0)" xlink:href="#ba" id="l"/><path d="M180 0v-1490h224l606 953c40 63 108 177 176 312-27-437-7-821-13-1265h190V0h-226C860-448 622-778 356-1262c27 476 11 792 15 1262H180" id="bb"/><path d="M789 20c-398 0-667-293-667-764 0-473 273-766 655-766 315 0 558 198 612 487h-196c-61-191-204-311-415-311-262 0-471 207-471 590 0 380 208 588 482 588 249 0 420-165 425-427H828v-166h572v163c0 370-256 606-611 606" id="bc"/><path d="M784 20c-382 0-662-292-662-764 0-473 280-766 662-766s660 293 660 766c0 472-278 764-660 764zm0-176c266 0 475-207 475-588 0-383-209-590-475-590-268 0-477 208-477 590 0 380 209 588 477 588" id="bd"/><g id="m"><use transform="matrix(0.010850694444444444,0,0,0.010850694444444444,0,0)" xlink:href="#bb"/><use transform="matrix(0.010850694444444444,0,0,0.010850694444444444,16.74262152777778,0)" xlink:href="#bc"/><use transform="matrix(0.010850694444444444,0,0,0.010850694444444444,33.322482638888886,0)" xlink:href="#bd"/></g><use transform="matrix(0.010850694444444444,0,0,0.010850694444444444,0,0)" xlink:href="#ba" id="n"/><path d="M52 0l541-1490h220L1361 0h-200l-149-416H398L254 0H52zm404-582h497c-103-290-145-390-251-756-108 377-145 460-246 756" id="be"/><path d="M645 0H180v-1490h484c435 0 692 280 692 742 0 466-257 748-711 748zM370-168h263c363 0 539-218 539-580 0-358-176-574-521-574H370v1154" id="bf"/><g id="o"><use transform="matrix(0.010850694444444444,0,0,0.010850694444444444,0,0)" xlink:href="#be"/><use transform="matrix(0.010850694444444444,0,0,0.010850694444444444,15.33203125,0)" xlink:href="#bf"/><use transform="matrix(0.010850694444444444,0,0,0.010850694444444444,31.36935763888889,0)" xlink:href="#aZ"/><use transform="matrix(0.010850694444444444,0,0,0.010850694444444444,51.44314236111112,0)" xlink:href="#aW"/><use transform="matrix(0.010850694444444444,0,0,0.010850694444444444,57.41102430555555,0)" xlink:href="#bb"/><use transform="matrix(0.010850694444444444,0,0,0.010850694444444444,74.15364583333334,0)" xlink:href="#aU"/></g><path d="M537 14c-226 0-379-139-379-422v-710h180v695c0 172 97 275 253 275 160 0 281-109 281-300v-670h181V0H879v-209C806-46 684 14 537 14" id="bg"/><g id="p"><use transform="matrix(0.010850694444444444,0,0,0.010850694444444444,0,0)" xlink:href="#aC"/><use transform="matrix(0.010850694444444444,0,0,0.010850694444444444,12.955729166666666,0)" xlink:href="#aK"/><use transform="matrix(0.010850694444444444,0,0,0.010850694444444444,26.085069444444443,0)" xlink:href="#bg"/><use transform="matrix(0.010850694444444444,0,0,0.010850694444444444,39.225260416666664,0)" xlink:href="#aN"/></g><g id="q"><use transform="matrix(0.010850694444444444,0,0,0.010850694444444444,0,0)" xlink:href="#aP"/><use transform="matrix(0.010850694444444444,0,0,0.010850694444444444,13.606770833333332,0)" xlink:href="#aT"/><use transform="matrix(0.010850694444444444,0,0,0.010850694444444444,26.746961805555554,0)" xlink:href="#aR"/><use transform="matrix(0.010850694444444444,0,0,0.010850694444444444,40.07161458333333,0)" xlink:href="#aK"/><use transform="matrix(0.010850694444444444,0,0,0.010850694444444444,53.20095486111111,0)" xlink:href="#aC"/></g><path d="M613 24c-304 0-509-231-509-576 0-350 205-580 509-580 216 0 392 114 453 309l-173 49c-33-115-133-197-280-197-223 0-326 196-326 419 0 220 103 415 326 415 150 0 252-85 285-206l172 49C1010-95 832 24 613 24" id="bh"/><g id="r"><use transform="matrix(0.010850694444444444,0,0,0.010850694444444444,0,0)" xlink:href="#bh"/><use transform="matrix(0.010850694444444444,0,0,0.010850694444444444,12.6953125,0)" xlink:href="#aD"/><use transform="matrix(0.010850694444444444,0,0,0.010850694444444444,20.692274305555557,0)" xlink:href="#aC"/><use transform="matrix(0.010850694444444444,0,0,0.010850694444444444,33.865017361111114,0)" xlink:href="#aM"/><use transform="matrix(0.010850694444444444,0,0,0.010850694444444444,46.34331597222223,0)" xlink:href="#aJ"/><use transform="matrix(0.010850694444444444,0,0,0.010850694444444444,53.39626736111112,0)" xlink:href="#aC"/><use transform="matrix(0.010850694444444444,0,0,0.010850694444444444,66.35199652777779,0)" xlink:href="#aG"/><use transform="matrix(0.010850694444444444,0,0,0.010850694444444444,79.95876736111111,0)" xlink:href="#be"/><use transform="matrix(0.010850694444444444,0,0,0.010850694444444444,94.85677083333334,0)" xlink:href="#aJ"/></g><g id="s"><use transform="matrix(0.010850694444444444,0,0,0.010850694444444444,0,0)" xlink:href="#aG"/><use transform="matrix(0.010850694444444444,0,0,0.010850694444444444,13.606770833333332,0)" xlink:href="#aM"/><use transform="matrix(0.010850694444444444,0,0,0.010850694444444444,26.085069444444443,0)" xlink:href="#aJ"/><use transform="matrix(0.010850694444444444,0,0,0.010850694444444444,33.13802083333333,0)" xlink:href="#aC"/><use transform="matrix(0.010850694444444444,0,0,0.010850694444444444,46.093749999999986,0)" xlink:href="#aJ"/><use transform="matrix(0.010850694444444444,0,0,0.010850694444444444,53.36371527777778,0)" xlink:href="#aF"/><use transform="matrix(0.010850694444444444,0,0,0.010850694444444444,58.74565972222221,0)" xlink:href="#aN"/><use transform="matrix(0.010850694444444444,0,0,0.010850694444444444,78.21180555555554,0)" xlink:href="#aC"/></g><path d="M657 26c-323 0-524-166-541-416h195c15 169 171 246 346 246 202 0 356-106 356-265 5-203-294-238-475-293-239-73-380-191-380-389 0-252 224-419 512-419 294 0 499 171 508 396H992c-17-145-151-228-328-228-193 0-321 102-321 242 0 156 175 211 284 241l149 41c160 44 422 134 422 412 0 244-197 432-541 432" id="bi"/><path d="M180 0v-1490h510c348 0 508 194 508 460 0 198-88 351-276 417L1256 0h-220L726-579c-117 2-238 0-356 1V0H180zm190-747h312c235 0 327-108 327-283 0-177-92-293-329-293H370v576" id="bj"/><path d="M1096 418H916v-591h-14C865-111 790 24 577 24c-279 0-473-224-473-580 0-354 195-576 474-576 218 0 287 134 324 193h20v-179h174V418zM604-137c203 0 314-172 314-421 0-247-108-413-314-413-212 0-317 181-317 413 0 235 108 421 317 421" id="bk"/><g id="t"><use transform="matrix(0.010850694444444444,0,0,0.010850694444444444,0,0)" xlink:href="#bi"/><use transform="matrix(0.010850694444444444,0,0,0.010850694444444444,14.2578125,0)" xlink:href="#bd"/><use transform="matrix(0.010850694444444444,0,0,0.010850694444444444,31.25,0)" xlink:href="#bi"/><use transform="matrix(0.010850694444444444,0,0,0.010850694444444444,45.5078125,0)" xlink:href="#aE"/><use transform="matrix(0.010850694444444444,0,0,0.010850694444444444,56.39105902777778,0)" xlink:href="#bj"/><use transform="matrix(0.010850694444444444,0,0,0.010850694444444444,70.36675347222221,0)" xlink:href="#aC"/><use transform="matrix(0.010850694444444444,0,0,0.010850694444444444,83.32248263888889,0)" xlink:href="#bk"/><use transform="matrix(0.010850694444444444,0,0,0.010850694444444444,96.92925347222221,0)" xlink:href="#bg"/><use transform="matrix(0.010850694444444444,0,0,0.010850694444444444,110.06944444444441,0)" xlink:href="#aC"/><use transform="matrix(0.010850694444444444,0,0,0.010850694444444444,123.0251736111111,0)" xlink:href="#aB"/><use transform="matrix(0.010850694444444444,0,0,0.010850694444444444,134.75477430555554,0)" xlink:href="#aJ"/></g><path d="M481 0L54-1118h197c107 314 236 620 325 951 87-331 217-637 324-951h197L670 0H481" id="bl"/><g id="u"><use transform="matrix(0.010850694444444444,0,0,0.010850694444444444,0,0)" xlink:href="#bl"/><use transform="matrix(0.010850694444444444,0,0,0.010850694444444444,12.489149305555555,0)" xlink:href="#aF"/><use transform="matrix(0.010850694444444444,0,0,0.010850694444444444,17.87109375,0)" xlink:href="#bh"/><use transform="matrix(0.010850694444444444,0,0,0.010850694444444444,30.56640625,0)" xlink:href="#aJ"/><use transform="matrix(0.010850694444444444,0,0,0.010850694444444444,37.83637152777778,0)" xlink:href="#aF"/><use transform="matrix(0.010850694444444444,0,0,0.010850694444444444,43.21831597222222,0)" xlink:href="#aN"/><use transform="matrix(0.010850694444444444,0,0,0.010850694444444444,62.68446180555555,0)" xlink:href="#aW"/><use transform="matrix(0.010850694444444444,0,0,0.010850694444444444,68.65234375,0)" xlink:href="#aG"/></g><path d="M180 0v-1490h901v168H370v510h643v168H370V0H180" id="bm"/><g id="v"><use transform="matrix(0.010850694444444444,0,0,0.010850694444444444,0,0)" xlink:href="#bm"/><use transform="matrix(0.010850694444444444,0,0,0.010850694444444444,13.118489583333332,0)" xlink:href="#aI"/></g><path d="M798-719v166H144v-166h654" id="bn"/><path d="M1181-520L237-44v-194l712-338v-12L237-926v-196l944 476v126" id="bo"/><g id="w"><use transform="matrix(0.010850694444444444,0,0,0.010850694444444444,0,0)" xlink:href="#aU"/><use transform="matrix(0.010850694444444444,0,0,0.010850694444444444,10.3515625,0)" xlink:href="#bn"/><use transform="matrix(0.010850694444444444,0,0,0.010850694444444444,20.572916666666664,0)" xlink:href="#bo"/></g><path d="M295 13c-75 0-135-60-135-135s60-135 135-135 135 60 135 135S370 13 295 13" id="bp"/><g id="x"><use transform="matrix(0.010850694444444444,0,0,0.010850694444444444,0,0)" xlink:href="#aA"/><use transform="matrix(0.010850694444444444,0,0,0.010850694444444444,16.536458333333332,0)" xlink:href="#aB"/><use transform="matrix(0.010850694444444444,0,0,0.010850694444444444,28.266059027777775,0)" xlink:href="#aC"/><use transform="matrix(0.010850694444444444,0,0,0.010850694444444444,41.22178819444444,0)" xlink:href="#aD"/><use transform="matrix(0.010850694444444444,0,0,0.010850694444444444,48.19878472222222,0)" xlink:href="#bp"/><use transform="matrix(0.010850694444444444,0,0,0.010850694444444444,54.60069444444444,0)" xlink:href="#aE"/><use transform="matrix(0.010850694444444444,0,0,0.010850694444444444,65.48394097222221,0)" xlink:href="#aF"/><use transform="matrix(0.010850694444444444,0,0,0.010850694444444444,70.86588541666666,0)" xlink:href="#aG"/><use transform="matrix(0.010850694444444444,0,0,0.010850694444444444,84.47265624999999,0)" xlink:href="#aU"/></g><g id="y"><use transform="matrix(0.010850694444444444,0,0,0.010850694444444444,0,0)" xlink:href="#aB"/><use transform="matrix(0.010850694444444444,0,0,0.010850694444444444,11.729600694444445,0)" xlink:href="#aJ"/><use transform="matrix(0.010850694444444444,0,0,0.010850694444444444,19.108072916666668,0)" xlink:href="#aM"/><use transform="matrix(0.010850694444444444,0,0,0.010850694444444444,31.586371527777775,0)" xlink:href="#aJ"/><use transform="matrix(0.010850694444444444,0,0,0.010850694444444444,38.85633680555556,0)" xlink:href="#bg"/><use transform="matrix(0.010850694444444444,0,0,0.010850694444444444,51.99652777777778,0)" xlink:href="#aB"/></g><path d="M180 0v-1490h908v168H370v486h669v168H370v500h727V0H180" id="bq"/><g id="z"><use transform="matrix(0.010850694444444444,0,0,0.010850694444444444,0,0)" xlink:href="#aU"/><use transform="matrix(0.010850694444444444,0,0,0.010850694444444444,10.3515625,0)" xlink:href="#aH"/><use transform="matrix(0.010850694444444444,0,0,0.010850694444444444,24.544270833333332,0)" xlink:href="#bq"/><use transform="matrix(0.010850694444444444,0,0,0.010850694444444444,37.90147569444444,0)" xlink:href="#bb"/><use transform="matrix(0.010850694444444444,0,0,0.010850694444444444,54.64409722222222,0)" xlink:href="#bf"/><use transform="matrix(0.010850694444444444,0,0,0.010850694444444444,70.68142361111111,0)" xlink:href="#aW"/><use transform="matrix(0.010850694444444444,0,0,0.010850694444444444,76.64930555555556,0)" xlink:href="#bb"/><use transform="matrix(0.010850694444444444,0,0,0.010850694444444444,93.39192708333334,0)" xlink:href="#bc"/></g><g id="A"><use transform="matrix(0.010850694444444444,0,0,0.010850694444444444,0,0)" xlink:href="#bf"/><use transform="matrix(0.010850694444444444,0,0,0.010850694444444444,16.03732638888889,0)" xlink:href="#aW"/><use transform="matrix(0.010850694444444444,0,0,0.010850694444444444,22.005208333333336,0)" xlink:href="#bi"/><use transform="matrix(0.010850694444444444,0,0,0.010850694444444444,36.263020833333336,0)" xlink:href="#aH"/><use transform="matrix(0.010850694444444444,0,0,0.010850694444444444,48.81727430555556,0)" xlink:href="#be"/><use transform="matrix(0.010850694444444444,0,0,0.010850694444444444,62.26128472222222,0)" xlink:href="#aY"/><use transform="matrix(0.010850694444444444,0,0,0.010850694444444444,75.94401041666666,0)" xlink:href="#aX"/><use transform="matrix(0.010850694444444444,0,0,0.010850694444444444,92.17664930555556,0)" xlink:href="#aS"/><use transform="matrix(0.010850694444444444,0,0,0.010850694444444444,108.69140624999997,0)" xlink:href="#bq"/><use transform="matrix(0.010850694444444444,0,0,0.010850694444444444,122.0486111111111,0)" xlink:href="#bf"/></g><path d="M180 0v-1490h190v1322h690V0H180" id="br"/><g id="B"><use transform="matrix(0.010850694444444444,0,0,0.010850694444444444,0,0)" xlink:href="#bj"/><use transform="matrix(0.010850694444444444,0,0,0.010850694444444444,14.301215277777777,0)" xlink:href="#bq"/><use transform="matrix(0.010850694444444444,0,0,0.010850694444444444,27.65842013888889,0)" xlink:href="#bi"/><use transform="matrix(0.010850694444444444,0,0,0.010850694444444444,41.916232638888886,0)" xlink:href="#bd"/><use transform="matrix(0.010850694444444444,0,0,0.010850694444444444,58.908420138888886,0)" xlink:href="#br"/><use transform="matrix(0.010850694444444444,0,0,0.010850694444444444,69.96527777777777,0)" xlink:href="#aV"/><use transform="matrix(0.010850694444444444,0,0,0.010850694444444444,85.29730902777777,0)" xlink:href="#bq"/><use transform="matrix(0.010850694444444444,0,0,0.010850694444444444,98.65451388888889,0)" xlink:href="#bf"/><use transform="matrix(0.010850694444444444,0,0,0.010850694444444444,114.69184027777777,0)" xlink:href="#aU"/></g><path d="M140 405l46-156c120 36 205 19 263-150l32-93L54-1118h197c107 313 237 620 324 950 87-331 219-637 326-950h196L606 167c-68 178-176 259-334 259-64 0-113-12-132-21" id="bs"/><g id="C"><use transform="matrix(0.010850694444444444,0,0,0.010850694444444444,0,0)" xlink:href="#aB"/><use transform="matrix(0.010850694444444444,0,0,0.010850694444444444,11.729600694444445,0)" xlink:href="#aC"/><use transform="matrix(0.010850694444444444,0,0,0.010850694444444444,24.251302083333332,0)" xlink:href="#bl"/><use transform="matrix(0.010850694444444444,0,0,0.010850694444444444,36.30642361111111,0)" xlink:href="#aC"/><use transform="matrix(0.010850694444444444,0,0,0.010850694444444444,49.26215277777778,0)" xlink:href="#aD"/><use transform="matrix(0.010850694444444444,0,0,0.010850694444444444,57.97526041666666,0)" xlink:href="#aF"/><use transform="matrix(0.010850694444444444,0,0,0.010850694444444444,63.3572048611111,0)" xlink:href="#aJ"/><use transform="matrix(0.010850694444444444,0,0,0.010850694444444444,71.06119791666666,0)" xlink:href="#bs"/></g><path d="M653-1490V0H466v-1314h-10L96-1047v-204l324-239h233" id="bt"/><path d="M626 20c-262 0-458-168-468-396h184c12 133 134 229 284 229 180 0 311-137 311-326 0-192-136-335-323-335-92 0-196 33-255 78l-178-22 88-738h784v167H429l-51 435h8c61-51 160-87 263-87 273 0 474 211 474 499 0 286-210 496-497 496" id="bu"/><g id="D"><use transform="matrix(0.010850694444444444,0,0,0.010850694444444444,0,0)" xlink:href="#aU"/><use transform="matrix(0.010850694444444444,0,0,0.010850694444444444,10.3515625,0)" xlink:href="#bt"/><use transform="matrix(0.010850694444444444,0,0,0.010850694444444444,19.39019097222222,0)" xlink:href="#bp"/><use transform="matrix(0.010850694444444444,0,0,0.010850694444444444,25.792100694444443,0)" xlink:href="#bp"/><use transform="matrix(0.010850694444444444,0,0,0.010850694444444444,31.879340277777775,0)" xlink:href="#bu"/><use transform="matrix(0.010850694444444444,0,0,0.010850694444444444,45.38845486111111,0)" xlink:href="#aU"/></g><g id="E"><use transform="matrix(0.010850694444444444,0,0,0.010850694444444444,0,0)" xlink:href="#aF"/><use transform="matrix(0.010850694444444444,0,0,0.010850694444444444,5.381944444444445,0)" xlink:href="#aK"/><use transform="matrix(0.010850694444444444,0,0,0.010850694444444444,18.51128472222222,0)" xlink:href="#aJ"/></g><g id="F"><use transform="matrix(0.010850694444444444,0,0,0.010850694444444444,0,0)" xlink:href="#aO"/><use transform="matrix(0.010850694444444444,0,0,0.010850694444444444,5.381944444444445,0)" xlink:href="#aR"/><use transform="matrix(0.010850694444444444,0,0,0.010850694444444444,18.70659722222222,0)" xlink:href="#bh"/><use transform="matrix(0.010850694444444444,0,0,0.010850694444444444,31.61892361111111,0)" xlink:href="#aM"/><use transform="matrix(0.010850694444444444,0,0,0.010850694444444444,44.09722222222222,0)" xlink:href="#aJ"/><use transform="matrix(0.010850694444444444,0,0,0.010850694444444444,51.3671875,0)" xlink:href="#aF"/><use transform="matrix(0.010850694444444444,0,0,0.010850694444444444,56.74913194444444,0)" xlink:href="#aR"/><use transform="matrix(0.010850694444444444,0,0,0.010850694444444444,70.07378472222221,0)" xlink:href="#aK"/></g><path d="M545 20c-263 0-445-160-445-446v-80h190v80c0 182 102 279 255 279 152 0 254-97 254-279v-1064h190v1064c0 286-181 446-444 446" id="bv"/><g id="G"><use transform="matrix(0.010850694444444444,0,0,0.010850694444444444,0,0)" xlink:href="#aU"/><use transform="matrix(0.010850694444444444,0,0,0.010850694444444444,10.3515625,0)" xlink:href="#bc"/><use transform="matrix(0.010850694444444444,0,0,0.010850694444444444,26.93142361111111,0)" xlink:href="#aC"/><use transform="matrix(0.010850694444444444,0,0,0.010850694444444444,39.88715277777778,0)" xlink:href="#aR"/><use transform="matrix(0.010850694444444444,0,0,0.010850694444444444,53.21180555555556,0)" xlink:href="#bv"/><use transform="matrix(0.010850694444444444,0,0,0.010850694444444444,65.89626736111111,0)" xlink:href="#bi"/><use transform="matrix(0.010850694444444444,0,0,0.010850694444444444,80.15407986111111,0)" xlink:href="#bd"/><use transform="matrix(0.010850694444444444,0,0,0.010850694444444444,97.14626736111111,0)" xlink:href="#bb"/><use transform="matrix(0.010850694444444444,0,0,0.010850694444444444,113.88888888888889,0)" xlink:href="#aU"/></g><path d="M677 24c-213 0-288-135-325-197h-20V0H158v-1490h180v551h14c37-59 106-193 324-193 279 0 474 222 474 576 0 356-194 580-473 580zm-27-161c209 0 317-186 317-421 0-232-105-413-317-413-206 0-314 166-314 413 0 249 111 421 314 421" id="bw"/><path d="M157-1118h181V80c1 225-123 350-364 338V252c126 9 184-48 183-172v-1198zm91-183c-68 0-125-53-125-119s57-119 125-119c69 0 126 53 126 119s-57 119-126 119" id="bx"/><g id="H"><use transform="matrix(0.010850694444444444,0,0,0.010850694444444444,0,0)" xlink:href="#aR"/><use transform="matrix(0.010850694444444444,0,0,0.010850694444444444,13.324652777777777,0)" xlink:href="#bw"/><use transform="matrix(0.010850694444444444,0,0,0.010850694444444444,26.931423611111104,0)" xlink:href="#bx"/><use transform="matrix(0.010850694444444444,0,0,0.010850694444444444,32.31336805555555,0)" xlink:href="#aC"/><use transform="matrix(0.010850694444444444,0,0,0.010850694444444444,45.26909722222221,0)" xlink:href="#bh"/><use transform="matrix(0.010850694444444444,0,0,0.010850694444444444,57.96440972222221,0)" xlink:href="#aJ"/></g><g id="I"><use transform="matrix(0.010850694444444444,0,0,0.010850694444444444,0,0)" xlink:href="#aG"/><use transform="matrix(0.010850694444444444,0,0,0.010850694444444444,13.606770833333332,0)" xlink:href="#aC"/><use transform="matrix(0.010850694444444444,0,0,0.010850694444444444,26.5625,0)" xlink:href="#aB"/><use transform="matrix(0.010850694444444444,0,0,0.010850694444444444,38.29210069444444,0)" xlink:href="#bh"/><use transform="matrix(0.010850694444444444,0,0,0.010850694444444444,50.98741319444444,0)" xlink:href="#aD"/><use transform="matrix(0.010850694444444444,0,0,0.010850694444444444,59.70052083333333,0)" xlink:href="#aF"/><use transform="matrix(0.010850694444444444,0,0,0.010850694444444444,65.08246527777777,0)" xlink:href="#aP"/><use transform="matrix(0.010850694444444444,0,0,0.010850694444444444,78.6892361111111,0)" xlink:href="#aJ"/><use transform="matrix(0.010850694444444444,0,0,0.010850694444444444,85.95920138888887,0)" xlink:href="#aF"/><use transform="matrix(0.010850694444444444,0,0,0.010850694444444444,91.34114583333331,0)" xlink:href="#aR"/><use transform="matrix(0.010850694444444444,0,0,0.010850694444444444,104.66579861111109,0)" xlink:href="#aK"/></g><g id="J"><use transform="matrix(0.010850694444444444,0,0,0.010850694444444444,0,0)" xlink:href="#bj"/><use transform="matrix(0.010850694444444444,0,0,0.010850694444444444,13.975694444444445,0)" xlink:href="#aC"/><use transform="matrix(0.010850694444444444,0,0,0.010850694444444444,26.931423611111104,0)" xlink:href="#aB"/><use transform="matrix(0.010850694444444444,0,0,0.010850694444444444,38.66102430555555,0)" xlink:href="#aR"/><use transform="matrix(0.010850694444444444,0,0,0.010850694444444444,51.98567708333333,0)" xlink:href="#bg"/><use transform="matrix(0.010850694444444444,0,0,0.010850694444444444,65.12586805555554,0)" xlink:href="#aD"/><use transform="matrix(0.010850694444444444,0,0,0.010850694444444444,73.1228298611111,0)" xlink:href="#bh"/><use transform="matrix(0.010850694444444444,0,0,0.010850694444444444,85.8181423611111,0)" xlink:href="#aC"/></g><g id="K"><use transform="matrix(0.010850694444444444,0,0,0.010850694444444444,0,0)" xlink:href="#aR"/><use transform="matrix(0.010850694444444444,0,0,0.010850694444444444,12.923177083333332,0)" xlink:href="#aQ"/><use transform="matrix(0.010850694444444444,0,0,0.010850694444444444,31.10894097222222,0)" xlink:href="#aK"/><use transform="matrix(0.010850694444444444,0,0,0.010850694444444444,44.23828125,0)" xlink:href="#aC"/><use transform="matrix(0.010850694444444444,0,0,0.010850694444444444,57.194010416666664,0)" xlink:href="#aD"/><use transform="matrix(0.010850694444444444,0,0,0.010850694444444444,65.90711805555556,0)" xlink:href="#aW"/><use transform="matrix(0.010850694444444444,0,0,0.010850694444444444,71.875,0)" xlink:href="#aG"/></g><g id="L"><use transform="matrix(0.010850694444444444,0,0,0.010850694444444444,0,0)" xlink:href="#bm"/><use transform="matrix(0.010850694444444444,0,0,0.010850694444444444,13.118489583333332,0)" xlink:href="#aI"/></g><g id="M"><use transform="matrix(0.010850694444444444,0,0,0.010850694444444444,0,0)" xlink:href="#aU"/><use transform="matrix(0.010850694444444444,0,0,0.010850694444444444,10.3515625,0)" xlink:href="#bn"/><use transform="matrix(0.010850694444444444,0,0,0.010850694444444444,20.572916666666664,0)" xlink:href="#bo"/></g><g id="N"><use transform="matrix(0.010850694444444444,0,0,0.010850694444444444,0,0)" xlink:href="#aJ"/><use transform="matrix(0.010850694444444444,0,0,0.010850694444444444,7.703993055555555,0)" xlink:href="#bs"/><use transform="matrix(0.010850694444444444,0,0,0.010850694444444444,20.19314236111111,0)" xlink:href="#aP"/><use transform="matrix(0.010850694444444444,0,0,0.010850694444444444,33.79991319444444,0)" xlink:href="#aC"/></g><g id="O"><use transform="matrix(0.010850694444444444,0,0,0.010850694444444444,0,0)" xlink:href="#aU"/><use transform="matrix(0.010850694444444444,0,0,0.010850694444444444,10.3515625,0)" xlink:href="#aZ"/><use transform="matrix(0.010850694444444444,0,0,0.010850694444444444,30.42534722222222,0)" xlink:href="#bq"/><use transform="matrix(0.010850694444444444,0,0,0.010850694444444444,43.78255208333333,0)" xlink:href="#bf"/><use transform="matrix(0.010850694444444444,0,0,0.010850694444444444,59.81987847222221,0)" xlink:href="#aW"/><use transform="matrix(0.010850694444444444,0,0,0.010850694444444444,65.78776041666666,0)" xlink:href="#aX"/><use transform="matrix(0.010850694444444444,0,0,0.010850694444444444,81.58637152777777,0)" xlink:href="#be"/><use transform="matrix(0.010850694444444444,0,0,0.010850694444444444,96.91840277777777,0)" xlink:href="#br"/></g><g id="P"><use transform="matrix(0.010850694444444444,0,0,0.010850694444444444,0,0)" xlink:href="#bm"/><use transform="matrix(0.010850694444444444,0,0,0.010850694444444444,13.118489583333332,0)" xlink:href="#bd"/><use transform="matrix(0.010850694444444444,0,0,0.010850694444444444,30.110677083333332,0)" xlink:href="#bd"/><use transform="matrix(0.010850694444444444,0,0,0.010850694444444444,47.10286458333333,0)" xlink:href="#bf"/></g><g id="Q"><use transform="matrix(0.010850694444444444,0,0,0.010850694444444444,0,0)" xlink:href="#aY"/><use transform="matrix(0.010850694444444444,0,0,0.010850694444444444,14.344618055555555,0)" xlink:href="#bj"/><use transform="matrix(0.010850694444444444,0,0,0.010850694444444444,28.645833333333332,0)" xlink:href="#be"/><use transform="matrix(0.010850694444444444,0,0,0.010850694444444444,43.97786458333333,0)" xlink:href="#bb"/><use transform="matrix(0.010850694444444444,0,0,0.010850694444444444,60.72048611111111,0)" xlink:href="#bi"/><use transform="matrix(0.010850694444444444,0,0,0.010850694444444444,74.97829861111111,0)" xlink:href="#aH"/><use transform="matrix(0.010850694444444444,0,0,0.010850694444444444,89.17100694444444,0)" xlink:href="#bd"/><use transform="matrix(0.010850694444444444,0,0,0.010850694444444444,106.16319444444444,0)" xlink:href="#bj"/><use transform="matrix(0.010850694444444444,0,0,0.010850694444444444,120.46440972222221,0)" xlink:href="#aY"/></g><g id="R"><use transform="matrix(0.010850694444444444,0,0,0.010850694444444444,0,0)" xlink:href="#bi"/><use transform="matrix(0.010850694444444444,0,0,0.010850694444444444,14.2578125,0)" xlink:href="#aS"/><use transform="matrix(0.010850694444444444,0,0,0.010850694444444444,30.772569444444443,0)" xlink:href="#bq"/><use transform="matrix(0.010850694444444444,0,0,0.010850694444444444,44.12977430555556,0)" xlink:href="#br"/><use transform="matrix(0.010850694444444444,0,0,0.010850694444444444,54.557291666666664,0)" xlink:href="#aY"/><use transform="matrix(0.010850694444444444,0,0,0.010850694444444444,68.90190972222221,0)" xlink:href="#bq"/><use transform="matrix(0.010850694444444444,0,0,0.010850694444444444,82.25911458333333,0)" xlink:href="#bj"/><use transform="matrix(0.010850694444444444,0,0,0.010850694444444444,96.56032986111111,0)" xlink:href="#aU"/></g><g id="S"><use transform="matrix(0.010850694444444444,0,0,0.010850694444444444,0,0)" xlink:href="#bk"/><use transform="matrix(0.010850694444444444,0,0,0.010850694444444444,13.606770833333332,0)" xlink:href="#bg"/><use transform="matrix(0.010850694444444444,0,0,0.010850694444444444,26.746961805555554,0)" xlink:href="#aM"/><use transform="matrix(0.010850694444444444,0,0,0.010850694444444444,39.225260416666664,0)" xlink:href="#aK"/><use transform="matrix(0.010850694444444444,0,0,0.010850694444444444,52.35460069444444,0)" xlink:href="#aJ"/><use transform="matrix(0.010850694444444444,0,0,0.010850694444444444,59.62456597222222,0)" xlink:href="#aF"/><use transform="matrix(0.010850694444444444,0,0,0.010850694444444444,65.00651041666667,0)" xlink:href="#aJ"/><use transform="matrix(0.010850694444444444,0,0,0.010850694444444444,72.71050347222221,0)" xlink:href="#bs"/></g><g id="T"><use transform="matrix(0.010850694444444444,0,0,0.010850694444444444,0,0)" xlink:href="#aF"/><use transform="matrix(0.010850694444444444,0,0,0.010850694444444444,5.381944444444445,0)" xlink:href="#aB"/><use transform="matrix(0.010850694444444444,0,0,0.010850694444444444,17.11154513888889,0)" xlink:href="#be"/><use transform="matrix(0.010850694444444444,0,0,0.010850694444444444,30.93532986111111,0)" xlink:href="#bl"/><use transform="matrix(0.010850694444444444,0,0,0.010850694444444444,43.31597222222222,0)" xlink:href="#aM"/><use transform="matrix(0.010850694444444444,0,0,0.010850694444444444,55.79427083333333,0)" xlink:href="#aF"/><use transform="matrix(0.010850694444444444,0,0,0.010850694444444444,61.17621527777778,0)" xlink:href="#aO"/><use transform="matrix(0.010850694444444444,0,0,0.010850694444444444,66.55815972222221,0)" xlink:href="#aM"/><use transform="matrix(0.010850694444444444,0,0,0.010850694444444444,79.03645833333333,0)" xlink:href="#bw"/><use transform="matrix(0.010850694444444444,0,0,0.010850694444444444,92.64322916666666,0)" xlink:href="#aO"/><use transform="matrix(0.010850694444444444,0,0,0.010850694444444444,98.02517361111111,0)" xlink:href="#aC"/></g><g id="U"><use transform="matrix(0.010850694444444444,0,0,0.010850694444444444,0,0)" xlink:href="#bw"/><use transform="matrix(0.010850694444444444,0,0,0.010850694444444444,13.606770833333332,0)" xlink:href="#aR"/><use transform="matrix(0.010850694444444444,0,0,0.010850694444444444,26.931423611111104,0)" xlink:href="#aR"/><use transform="matrix(0.010850694444444444,0,0,0.010850694444444444,40.256076388888886,0)" xlink:href="#aO"/><use transform="matrix(0.010850694444444444,0,0,0.010850694444444444,45.63802083333333,0)" xlink:href="#aC"/><use transform="matrix(0.010850694444444444,0,0,0.010850694444444444,58.81076388888888,0)" xlink:href="#aM"/><use transform="matrix(0.010850694444444444,0,0,0.010850694444444444,71.28906249999999,0)" xlink:href="#aK"/></g><g id="V"><use transform="matrix(0.010850694444444444,0,0,0.010850694444444444,0,0)" xlink:href="#aO"/><use transform="matrix(0.010850694444444444,0,0,0.010850694444444444,5.381944444444445,0)" xlink:href="#aM"/><use transform="matrix(0.010850694444444444,0,0,0.010850694444444444,17.860243055555557,0)" xlink:href="#aB"/><use transform="matrix(0.010850694444444444,0,0,0.010850694444444444,29.58984375,0)" xlink:href="#aJ"/><use transform="matrix(0.010850694444444444,0,0,0.010850694444444444,36.85980902777778,0)" xlink:href="#aA"/><use transform="matrix(0.010850694444444444,0,0,0.010850694444444444,53.39626736111112,0)" xlink:href="#aP"/><use transform="matrix(0.010850694444444444,0,0,0.010850694444444444,67.00303819444444,0)" xlink:href="#aG"/><use transform="matrix(0.010850694444444444,0,0,0.010850694444444444,80.60980902777777,0)" xlink:href="#aM"/><use transform="matrix(0.010850694444444444,0,0,0.010850694444444444,93.08810763888889,0)" xlink:href="#aJ"/><use transform="matrix(0.010850694444444444,0,0,0.010850694444444444,100.14105902777777,0)" xlink:href="#aC"/><use transform="matrix(0.010850694444444444,0,0,0.010850694444444444,113.09678819444444,0)" xlink:href="#aG"/></g><g id="W"><use transform="matrix(0.010850694444444444,0,0,0.010850694444444444,0,0)" xlink:href="#be"/><use transform="matrix(0.010850694444444444,0,0,0.010850694444444444,15.33203125,0)" xlink:href="#aO"/><use transform="matrix(0.010850694444444444,0,0,0.010850694444444444,20.713975694444443,0)" xlink:href="#aO"/><use transform="matrix(0.010850694444444444,0,0,0.010850694444444444,26.09592013888889,0)" xlink:href="#aR"/><use transform="matrix(0.010850694444444444,0,0,0.010850694444444444,39.420572916666664,0)" xlink:href="#bh"/><use transform="matrix(0.010850694444444444,0,0,0.010850694444444444,52.33289930555556,0)" xlink:href="#aM"/><use transform="matrix(0.010850694444444444,0,0,0.010850694444444444,64.81119791666666,0)" xlink:href="#aJ"/><use transform="matrix(0.010850694444444444,0,0,0.010850694444444444,72.08116319444443,0)" xlink:href="#aF"/><use transform="matrix(0.010850694444444444,0,0,0.010850694444444444,77.46310763888887,0)" xlink:href="#aR"/><use transform="matrix(0.010850694444444444,0,0,0.010850694444444444,90.78776041666664,0)" xlink:href="#aK"/></g><g id="X"><use transform="matrix(0.010850694444444444,0,0,0.010850694444444444,0,0)" xlink:href="#aD"/><use transform="matrix(0.010850694444444444,0,0,0.010850694444444444,7.996961805555555,0)" xlink:href="#aC"/><use transform="matrix(0.010850694444444444,0,0,0.010850694444444444,20.95269097222222,0)" xlink:href="#bk"/><use transform="matrix(0.010850694444444444,0,0,0.010850694444444444,34.55946180555556,0)" xlink:href="#bg"/><use transform="matrix(0.010850694444444444,0,0,0.010850694444444444,47.69965277777778,0)" xlink:href="#aC"/><use transform="matrix(0.010850694444444444,0,0,0.010850694444444444,60.65538194444444,0)" xlink:href="#aB"/><use transform="matrix(0.010850694444444444,0,0,0.010850694444444444,72.38498263888889,0)" xlink:href="#aJ"/><use transform="matrix(0.010850694444444444,0,0,0.010850694444444444,79.65494791666666,0)" xlink:href="#aW"/><use transform="matrix(0.010850694444444444,0,0,0.010850694444444444,85.6228298611111,0)" xlink:href="#aG"/></g><g id="Y"><use transform="matrix(0.010850694444444444,0,0,0.010850694444444444,0,0)" xlink:href="#bi"/><use transform="matrix(0.010850694444444444,0,0,0.010850694444444444,14.2578125,0)" xlink:href="#bd"/><use transform="matrix(0.010850694444444444,0,0,0.010850694444444444,31.25,0)" xlink:href="#bi"/><use transform="matrix(0.010850694444444444,0,0,0.010850694444444444,45.5078125,0)" xlink:href="#aE"/><use transform="matrix(0.010850694444444444,0,0,0.010850694444444444,56.39105902777778,0)" xlink:href="#bj"/><use transform="matrix(0.010850694444444444,0,0,0.010850694444444444,70.36675347222221,0)" xlink:href="#aC"/><use transform="matrix(0.010850694444444444,0,0,0.010850694444444444,83.32248263888889,0)" xlink:href="#bk"/><use transform="matrix(0.010850694444444444,0,0,0.010850694444444444,96.92925347222221,0)" xlink:href="#bg"/><use transform="matrix(0.010850694444444444,0,0,0.010850694444444444,110.06944444444441,0)" xlink:href="#aC"/><use transform="matrix(0.010850694444444444,0,0,0.010850694444444444,123.0251736111111,0)" xlink:href="#aB"/><use transform="matrix(0.010850694444444444,0,0,0.010850694444444444,134.75477430555554,0)" xlink:href="#aJ"/><use transform="matrix(0.010850694444444444,0,0,0.010850694444444444,142.02473958333331,0)" xlink:href="#bp"/><use transform="matrix(0.010850694444444444,0,0,0.010850694444444444,148.42664930555554,0)" xlink:href="#aE"/><use transform="matrix(0.010850694444444444,0,0,0.010850694444444444,159.30989583333331,0)" xlink:href="#aF"/><use transform="matrix(0.010850694444444444,0,0,0.010850694444444444,164.69184027777777,0)" xlink:href="#aG"/></g><path d="M218-607c0-325 108-727 258-974h175c-155 315-250 682-250 974 0 265 78 531 250 886H476C306-10 218-315 218-607" id="by"/><g id="Z"><use transform="matrix(0.010850694444444444,0,0,0.010850694444444444,0,0)" xlink:href="#by"/><use transform="matrix(0.010850694444444444,0,0,0.010850694444444444,8.10546875,0)" xlink:href="#bg"/><use transform="matrix(0.010850694444444444,0,0,0.010850694444444444,21.24565972222222,0)" xlink:href="#aK"/><use transform="matrix(0.010850694444444444,0,0,0.010850694444444444,34.375,0)" xlink:href="#aF"/><use transform="matrix(0.010850694444444444,0,0,0.010850694444444444,39.75694444444444,0)" xlink:href="#bk"/><use transform="matrix(0.010850694444444444,0,0,0.010850694444444444,53.36371527777778,0)" xlink:href="#bg"/><use transform="matrix(0.010850694444444444,0,0,0.010850694444444444,66.50390625,0)" xlink:href="#aC"/></g><g id="aa"><use transform="matrix(0.010850694444444444,0,0,0.010850694444444444,0,0)" xlink:href="#aP"/><use transform="matrix(0.010850694444444444,0,0,0.010850694444444444,13.606770833333332,0)" xlink:href="#aC"/><use transform="matrix(0.010850694444444444,0,0,0.010850694444444444,26.5625,0)" xlink:href="#aD"/></g><path d="M96 279C273-86 346-350 346-607c0-292-95-659-250-974h175c150 246 258 650 258 974 0 297-91 602-258 886H96" id="bz"/><g id="ab"><use transform="matrix(0.010850694444444444,0,0,0.010850694444444444,0,0)" xlink:href="#aM"/><use transform="matrix(0.010850694444444444,0,0,0.010850694444444444,12.47829861111111,0)" xlink:href="#bh"/><use transform="matrix(0.010850694444444444,0,0,0.010850694444444444,25.17361111111111,0)" xlink:href="#aJ"/><use transform="matrix(0.010850694444444444,0,0,0.010850694444444444,32.443576388888886,0)" xlink:href="#aF"/><use transform="matrix(0.010850694444444444,0,0,0.010850694444444444,37.82552083333333,0)" xlink:href="#bl"/><use transform="matrix(0.010850694444444444,0,0,0.010850694444444444,49.88064236111111,0)" xlink:href="#aC"/><use transform="matrix(0.010850694444444444,0,0,0.010850694444444444,62.58680555555555,0)" xlink:href="#bz"/><use transform="matrix(0.010850694444444444,0,0,0.010850694444444444,70.69227430555554,0)" xlink:href="#aU"/></g><g id="ac"><use transform="matrix(0.010850694444444444,0,0,0.010850694444444444,0,0)" xlink:href="#aD"/><use transform="matrix(0.010850694444444444,0,0,0.010850694444444444,7.996961805555555,0)" xlink:href="#aC"/><use transform="matrix(0.010850694444444444,0,0,0.010850694444444444,20.95269097222222,0)" xlink:href="#aB"/><use transform="matrix(0.010850694444444444,0,0,0.010850694444444444,32.682291666666664,0)" xlink:href="#aR"/><use transform="matrix(0.010850694444444444,0,0,0.010850694444444444,46.00694444444444,0)" xlink:href="#bg"/><use transform="matrix(0.010850694444444444,0,0,0.010850694444444444,59.147135416666664,0)" xlink:href="#aD"/><use transform="matrix(0.010850694444444444,0,0,0.010850694444444444,67.14409722222221,0)" xlink:href="#bh"/><use transform="matrix(0.010850694444444444,0,0,0.010850694444444444,79.83940972222221,0)" xlink:href="#aC"/><use transform="matrix(0.010850694444444444,0,0,0.010850694444444444,92.79513888888889,0)" xlink:href="#aW"/><use transform="matrix(0.010850694444444444,0,0,0.010850694444444444,98.76302083333333,0)" xlink:href="#aG"/></g><g id="ad"><use transform="matrix(0.010850694444444444,0,0,0.010850694444444444,0,0)" xlink:href="#bj"/><use transform="matrix(0.010850694444444444,0,0,0.010850694444444444,13.975694444444445,0)" xlink:href="#aC"/><use transform="matrix(0.010850694444444444,0,0,0.010850694444444444,26.931423611111104,0)" xlink:href="#aB"/><use transform="matrix(0.010850694444444444,0,0,0.010850694444444444,38.66102430555555,0)" xlink:href="#aR"/><use transform="matrix(0.010850694444444444,0,0,0.010850694444444444,51.98567708333333,0)" xlink:href="#bg"/><use transform="matrix(0.010850694444444444,0,0,0.010850694444444444,65.12586805555554,0)" xlink:href="#aD"/><use transform="matrix(0.010850694444444444,0,0,0.010850694444444444,73.1228298611111,0)" xlink:href="#bh"/><use transform="matrix(0.010850694444444444,0,0,0.010850694444444444,85.8181423611111,0)" xlink:href="#aC"/><use transform="matrix(0.010850694444444444,0,0,0.010850694444444444,98.77387152777777,0)" xlink:href="#bp"/><use transform="matrix(0.010850694444444444,0,0,0.010850694444444444,105.17578125,0)" xlink:href="#aE"/><use transform="matrix(0.010850694444444444,0,0,0.010850694444444444,116.0590277777778,0)" xlink:href="#aF"/><use transform="matrix(0.010850694444444444,0,0,0.010850694444444444,121.44097222222224,0)" xlink:href="#aG"/><use transform="matrix(0.010850694444444444,0,0,0.010850694444444444,135.04774305555557,0)" xlink:href="#aU"/></g><g id="ae"><use transform="matrix(0.010850694444444444,0,0,0.010850694444444444,0,0)" xlink:href="#aM"/><use transform="matrix(0.010850694444444444,0,0,0.010850694444444444,12.47829861111111,0)" xlink:href="#aB"/><use transform="matrix(0.010850694444444444,0,0,0.010850694444444444,24.207899305555554,0)" xlink:href="#aB"/><use transform="matrix(0.010850694444444444,0,0,0.010850694444444444,35.9375,0)" xlink:href="#aF"/><use transform="matrix(0.010850694444444444,0,0,0.010850694444444444,41.31944444444444,0)" xlink:href="#aL"/><use transform="matrix(0.010850694444444444,0,0,0.010850694444444444,54.947916666666664,0)" xlink:href="#aK"/><use transform="matrix(0.010850694444444444,0,0,0.010850694444444444,68.07725694444444,0)" xlink:href="#aC"/><use transform="matrix(0.010850694444444444,0,0,0.010850694444444444,81.03298611111111,0)" xlink:href="#aG"/><use transform="matrix(0.010850694444444444,0,0,0.010850694444444444,94.63975694444444,0)" xlink:href="#be"/><use transform="matrix(0.010850694444444444,0,0,0.010850694444444444,109.53776041666666,0)" xlink:href="#aJ"/></g><g id="af"><use transform="matrix(0.010850694444444444,0,0,0.010850694444444444,0,0)" xlink:href="#aB"/><use transform="matrix(0.010850694444444444,0,0,0.010850694444444444,11.729600694444445,0)" xlink:href="#aJ"/><use transform="matrix(0.010850694444444444,0,0,0.010850694444444444,19.108072916666668,0)" xlink:href="#aM"/><use transform="matrix(0.010850694444444444,0,0,0.010850694444444444,31.586371527777775,0)" xlink:href="#aJ"/><use transform="matrix(0.010850694444444444,0,0,0.010850694444444444,38.85633680555556,0)" xlink:href="#bg"/><use transform="matrix(0.010850694444444444,0,0,0.010850694444444444,51.99652777777778,0)" xlink:href="#aB"/></g><g id="ag"><use transform="matrix(0.010850694444444444,0,0,0.010850694444444444,0,0)" xlink:href="#aU"/><use transform="matrix(0.010850694444444444,0,0,0.010850694444444444,8.59375,0)" xlink:href="#be"/><use transform="matrix(0.010850694444444444,0,0,0.010850694444444444,23.16623263888889,0)" xlink:href="#aX"/><use transform="matrix(0.010850694444444444,0,0,0.010850694444444444,39.39887152777778,0)" xlink:href="#aY"/><use transform="matrix(0.010850694444444444,0,0,0.010850694444444444,53.74348958333333,0)" xlink:href="#aW"/><use transform="matrix(0.010850694444444444,0,0,0.010850694444444444,59.71137152777778,0)" xlink:href="#aV"/><use transform="matrix(0.010850694444444444,0,0,0.010850694444444444,75.04340277777777,0)" xlink:href="#bq"/></g><g id="ah"><use transform="matrix(0.010850694444444444,0,0,0.010850694444444444,0,0)" xlink:href="#aX"/><use transform="matrix(0.010850694444444444,0,0,0.010850694444444444,16.23263888888889,0)" xlink:href="#bd"/><use transform="matrix(0.010850694444444444,0,0,0.010850694444444444,33.224826388888886,0)" xlink:href="#aZ"/><use transform="matrix(0.010850694444444444,0,0,0.010850694444444444,53.29861111111111,0)" xlink:href="#aH"/><use transform="matrix(0.010850694444444444,0,0,0.010850694444444444,67.49131944444444,0)" xlink:href="#br"/><use transform="matrix(0.010850694444444444,0,0,0.010850694444444444,80.05642361111111,0)" xlink:href="#bq"/><use transform="matrix(0.010850694444444444,0,0,0.010850694444444444,93.41362847222221,0)" xlink:href="#aY"/><use transform="matrix(0.010850694444444444,0,0,0.010850694444444444,107.7582465277778,0)" xlink:href="#bq"/><use transform="matrix(0.010850694444444444,0,0,0.010850694444444444,121.1154513888889,0)" xlink:href="#bf"/><use transform="matrix(0.010850694444444444,0,0,0.010850694444444444,137.1527777777778,0)" xlink:href="#aU"/></g><path fill="#3a414a" d="M233-870l-31-620h289l-30 620H233zm435 0l-30-620h289l-30 620H668" id="bA"/><path fill="#3a414a" d="M128 0v-1118h290v195h12c54-169 184-238 367-200v268c-27-8-86-15-130-15-138 0-239 95-239 234V0H128" id="bB"/><path fill="#3a414a" d="M440 22C227 22 68-92 68-313c0-250 202-322 422-343 195-21 271-24 271-105 0-95-63-149-175-149-116 0-187 57-211 129l-275-46c57-194 237-305 487-305 240 0 474 108 474 379V0H777v-155h-10C713-51 605 22 440 22zm85-211c140 0 238-93 238-211v-121c-37 26-156 42-222 51-111 16-185 59-185 149 0 87 70 132 169 132" id="bC"/><path fill="#3a414a" d="M128 0v-1118h300V0H128zm150-1264c-91 0-165-68-165-154 0-85 74-154 165-154 90 0 165 69 165 154 0 86-75 154-165 154" id="bD"/><path fill="#3a414a" d="M572 22C302 22 117-98 78-306l279-48c29 105 101 156 224 156 114 0 185-48 185-115 0-118-228-130-337-155-215-49-322-150-322-317 0-215 187-347 470-347 265 0 424 116 466 298l-266 47c-24-76-87-130-196-130-98 0-174 46-174 113 0 56 38 95 144 117l201 40c216 44 320 143 320 302 0 220-207 367-500 367" id="bE"/><path fill="#3a414a" d="M633 22C291 22 81-200 81-553c0-345 210-579 537-579 292 0 525 185 525 567v84H378c7 183 109 277 260 277 105 0 184-46 216-132l272 51C1071-99 893 22 633 22zM380-669h474c-15-146-94-237-233-237-143 0-229 99-241 237" id="bF"/><g id="ai"><use transform="matrix(0.008680555555555556,0,0,0.008680555555555556,0,0)" xlink:href="#bA"/><use transform="matrix(0.008680555555555556,0,0,0.008680555555555556,9.809027777777779,0)" xlink:href="#bB"/><use transform="matrix(0.008680555555555556,0,0,0.008680555555555556,16.805555555555557,0)" xlink:href="#bC"/><use transform="matrix(0.008680555555555556,0,0,0.008680555555555556,27.12673611111111,0)" xlink:href="#bD"/><use transform="matrix(0.008680555555555556,0,0,0.008680555555555556,31.94444444444445,0)" xlink:href="#bE"/><use transform="matrix(0.008680555555555556,0,0,0.008680555555555556,41.90104166666667,0)" xlink:href="#bF"/><use transform="matrix(0.008680555555555556,0,0,0.008680555555555556,52.49131944444445,0)" xlink:href="#bE"/><use transform="matrix(0.008680555555555556,0,0,0.008680555555555556,62.309027777777786,0)" xlink:href="#bA"/></g><path fill="#3a414a" d="M128 0v-1118h278l12 217c60-163 185-234 319-234 143 0 236 81 288 251 63-172 205-251 359-251 205 0 357 138 357 381V0h-301v-697c0-126-76-187-177-187-114 0-184 79-184 196V0H789v-705c0-109-72-179-174-179-106 0-187 74-187 208V0H128" id="bG"/><path fill="#3a414a" d="M428-647V0H128v-1118h283l4 231c63-156 176-245 348-245 232 0 384 159 384 421V0H847v-659c0-139-76-222-202-222-128 0-217 86-217 234" id="bH"/><path fill="#3a414a" d="M625 442c-280 0-454-114-503-274l258-72c28 63 97 128 243 128 153 0 246-69 246-216v-206h-23C805-108 717-16 536-16 284-16 81-191 81-561c0-378 208-571 456-571 188 0 280 113 321 202h13v-188h295V-9c0 303-226 451-541 451zm5-686c153 0 240-119 240-319 0-198-86-329-240-329-158 0-241 137-241 329 0 195 85 319 241 319" id="bI"/><g id="aj"><use transform="matrix(0.008680555555555556,0,0,0.008680555555555556,0,0)" xlink:href="#bA"/><use transform="matrix(0.008680555555555556,0,0,0.008680555555555556,9.809027777777779,0)" xlink:href="#bG"/><use transform="matrix(0.008680555555555556,0,0,0.008680555555555556,26.032986111111118,0)" xlink:href="#bC"/><use transform="matrix(0.008680555555555556,0,0,0.008680555555555556,36.35416666666667,0)" xlink:href="#bH"/><use transform="matrix(0.008680555555555556,0,0,0.008680555555555556,47.42187500000001,0)" xlink:href="#bC"/><use transform="matrix(0.008680555555555556,0,0,0.008680555555555556,57.743055555555564,0)" xlink:href="#bI"/><use transform="matrix(0.008680555555555556,0,0,0.008680555555555556,68.97569444444446,0)" xlink:href="#bF"/><use transform="matrix(0.008680555555555556,0,0,0.008680555555555556,79.56597222222223,0)" xlink:href="#bE"/><use transform="matrix(0.008680555555555556,0,0,0.008680555555555556,89.38368055555557,0)" xlink:href="#bA"/></g><path fill="#3a414a" d="M537 19C279 19 81-185 81-557c0-382 206-575 454-575 190 0 278 113 318 202h10v-560h300V0H868v-179h-15C812-89 719 19 537 19zm92-241c153 0 240-134 240-336 0-203-86-334-240-334-158 0-240 138-240 334 0 197 84 336 240 336" id="bJ"/><g id="ak"><use transform="matrix(0.008680555555555556,0,0,0.008680555555555556,0,0)" xlink:href="#bA"/><use transform="matrix(0.008680555555555556,0,0,0.008680555555555556,9.809027777777779,0)" xlink:href="#bC"/><use transform="matrix(0.008680555555555556,0,0,0.008680555555555556,20.130208333333336,0)" xlink:href="#bE"/><use transform="matrix(0.008680555555555556,0,0,0.008680555555555556,30.086805555555557,0)" xlink:href="#bE"/><use transform="matrix(0.008680555555555556,0,0,0.008680555555555556,40.04340277777778,0)" xlink:href="#bD"/><use transform="matrix(0.008680555555555556,0,0,0.008680555555555556,44.861111111111114,0)" xlink:href="#bI"/><use transform="matrix(0.008680555555555556,0,0,0.008680555555555556,56.09375,0)" xlink:href="#bH"/><use transform="matrix(0.008680555555555556,0,0,0.008680555555555556,67.16145833333333,0)" xlink:href="#bF"/><use transform="matrix(0.008680555555555556,0,0,0.008680555555555556,77.75173611111111,0)" xlink:href="#bJ"/></g><path fill="#3a414a" d="M443 0L31-1118h319c90 293 199 572 268 885 66-313 175-593 264-885h315L784 0H443" id="bK"/><g id="al"><use transform="matrix(0.008680555555555556,0,0,0.008680555555555556,0,0)" xlink:href="#bK"/><use transform="matrix(0.008680555555555556,0,0,0.008680555555555556,10.659722222222223,0)" xlink:href="#bD"/><use transform="matrix(0.008680555555555556,0,0,0.008680555555555556,15.477430555555555,0)" xlink:href="#bC"/><use transform="matrix(0.008680555555555556,0,0,0.008680555555555556,25.425347222222225,0)" xlink:href="#bA"/></g><path fill="#3a414a" d="M628 22C291 22 81-210 81-554c0-346 210-578 547-578 265 0 455 142 497 372l-279 52c-25-116-99-188-215-188-160 0-244 139-244 341 0 200 84 341 244 341 116 0 193-74 217-195l279 51C1085-123 896 22 628 22" id="bL"/><path fill="#3a414a" d="M628 22C291 22 81-210 81-554c0-346 210-578 547-578 336 0 547 232 547 578 0 344-211 576-547 576zm0-236c160 0 242-146 242-341 0-197-82-341-242-341S387-753 387-555c0 195 81 341 241 341" id="bM"/><path fill="#3a414a" d="M513 14c-232 0-385-159-385-421v-711h300v659c0 139 76 222 202 222 127 0 217-86 217-234v-647h301V0H864l-4-232C797-74 683 14 513 14" id="bN"/><g id="am"><use transform="matrix(0.008680555555555556,0,0,0.008680555555555556,0,0)" xlink:href="#bA"/><use transform="matrix(0.008680555555555556,0,0,0.008680555555555556,9.453125,0)" xlink:href="#bL"/><use transform="matrix(0.008680555555555556,0,0,0.008680555555555556,19.913194444444443,0)" xlink:href="#bM"/><use transform="matrix(0.008680555555555556,0,0,0.008680555555555556,30.815972222222218,0)" xlink:href="#bH"/><use transform="matrix(0.008680555555555556,0,0,0.008680555555555556,41.88368055555556,0)" xlink:href="#bE"/><use transform="matrix(0.008680555555555556,0,0,0.008680555555555556,51.84027777777778,0)" xlink:href="#bN"/><use transform="matrix(0.008680555555555556,0,0,0.008680555555555556,62.907986111111114,0)" xlink:href="#bG"/><use transform="matrix(0.008680555555555556,0,0,0.008680555555555556,79.13194444444446,0)" xlink:href="#bF"/><use transform="matrix(0.008680555555555556,0,0,0.008680555555555556,89.72222222222223,0)" xlink:href="#bJ"/></g><path fill="#3a414a" d="M754 19C571 19 479-89 437-179h-14V0H128v-1490h300v560h9c41-89 129-202 319-202 248 0 453 193 453 575 0 372-197 576-455 576zm-92-241c156 0 240-139 240-336 0-196-83-334-240-334-154 0-241 131-241 334 0 202 88 336 241 336" id="bO"/><path fill="#3a414a" d="M120 396l69-226c123 42 245 23 254-107l8-60L31-1118h319c87 288 199 559 259 872 72-308 185-583 277-872h315L726 132c-68 181-186 294-410 294-79 0-153-13-196-30" id="bP"/><g id="an"><use transform="matrix(0.008680555555555556,0,0,0.008680555555555556,0,0)" xlink:href="#bO"/><use transform="matrix(0.008680555555555556,0,0,0.008680555555555556,10.885416666666668,0)" xlink:href="#bP"/></g><path fill="#3a414a" d="M683-1118v229H474v562c0 71 29 104 102 104 23 0 73-7 95-13l43 225C647 9 580 16 520 16 296 16 174-96 174-301v-588H20v-229h154v-266h300v266h209" id="bQ"/><g id="ao"><use transform="matrix(0.008680555555555556,0,0,0.008680555555555556,0,0)" xlink:href="#bC"/><use transform="matrix(0.008680555555555556,0,0,0.008680555555555556,10.321180555555555,0)" xlink:href="#bE"/><use transform="matrix(0.008680555555555556,0,0,0.008680555555555556,20.27777777777778,0)" xlink:href="#bE"/><use transform="matrix(0.008680555555555556,0,0,0.008680555555555556,30.234375,0)" xlink:href="#bD"/><use transform="matrix(0.008680555555555556,0,0,0.008680555555555556,35.052083333333336,0)" xlink:href="#bI"/><use transform="matrix(0.008680555555555556,0,0,0.008680555555555556,46.284722222222236,0)" xlink:href="#bH"/><use transform="matrix(0.008680555555555556,0,0,0.008680555555555556,57.352430555555564,0)" xlink:href="#bG"/><use transform="matrix(0.008680555555555556,0,0,0.008680555555555556,73.57638888888889,0)" xlink:href="#bF"/><use transform="matrix(0.008680555555555556,0,0,0.008680555555555556,84.16666666666669,0)" xlink:href="#bH"/><use transform="matrix(0.008680555555555556,0,0,0.008680555555555556,95.23437500000001,0)" xlink:href="#bQ"/><use transform="matrix(0.008680555555555556,0,0,0.008680555555555556,101.61458333333336,0)" xlink:href="#bE"/><use transform="matrix(0.008680555555555556,0,0,0.008680555555555556,111.4322916666667,0)" xlink:href="#bA"/></g></defs></g></svg>